<svg xmlns="http://www.w3.org/2000/svg" viewBox="0 0 338.913 339.67">
  <defs>
    <style>
      .cls-1, .cls-3 {
        fill: none;
      }

      .cls-1, .cls-2, .cls-3 {
        stroke: #000;
        stroke-width: 2px;
      }

      .cls-2, .cls-3 {
        stroke-miterlimit: 10;
      }
    </style>
  </defs>
  <g id="Layer_1" data-name="Layer 1">
    <path class="cls-1" d="M5.079,5.776H341.992v337.67H5.08Z" transform="translate(-4.079 -4.776)"/>
    <path class="cls-1" d="M282.734,40.554a15.366,15.366,0,0,1,15.56-15.165,15.763,15.763,0,0,1,11,4.441,14.975,14.975,0,0,1,4.558,10.724,15.565,15.565,0,0,1-31.119,0Z" transform="translate(-4.079 -4.776)"/>
  </g>
  <g id="Layer_2" data-name="Layer 2">
    <path id="path3776" class="cls-2" d="M173.1,51.37c-.974,0-1.929,0-2.8,0-1.153.01-2.146.03-2.807.063-13.467.665-26.247,3.425-36.834,7.956A69.647,69.647,0,0,0,114.2,69.117a79.6,79.6,0,0,0-7.208,6.911C99.832,84.367,95.536,93.984,93.731,105.7a89.077,89.077,0,0,0-.368,22.945c.109,1.059.338,3.947.51,6.417.938,13.5,1.817,22.347,2.931,29.518.835,5.369,1.509,7.952,2.754,10.546a12.811,12.811,0,0,1,1.247,3.525c.079.648-.016.789-.593.878A4.03,4.03,0,0,0,97.1,182.72c-.7,2.651-.418,6.06.876,10.653.65,2.3.628,2.272,3.827,5.531,3.537,3.6,5.306,5.956,6.631,8.816a7.477,7.477,0,0,1,.5,1.27,1.376,1.376,0,0,0,.155.485,9.8,9.8,0,0,1,.672,3.879c.053,1.113.168,2.532.256,3.153a38.728,38.728,0,0,0,2.82,8.951,41.3,41.3,0,0,1,2.864,8.464c1.834,7.905,2.523,17.886,1.674,24.252a11.772,11.772,0,0,0-.111,2.024c.128,1.878,1.352,4.241,3.6,6.954a78.805,78.805,0,0,0,6.021,6.481,280.311,280.311,0,0,0,24.423,17.661c6.382,4.071,8.282,4.908,11.991,5.279a83.4,83.4,0,0,0,8.967-.188c4.447-.269,9.4-.422,12.452-.383l2.562.033.82-.377c3.63-1.667,10.845-6.851,30.751-22.1,1.519-1.163,3.523-2.691,4.453-3.394a31.671,31.671,0,0,0,4.64-4.195,19.617,19.617,0,0,0,3.92-7.527c.5-1.97.561-2.875.563-7.954a85.235,85.235,0,0,1,.358-9.645,50.625,50.625,0,0,1,2.307-11.155,164.022,164.022,0,0,0,5.22-22.219,5.222,5.222,0,0,1,1.065-2.956c.171-.217,1.217-1.284,2.324-2.37A24.322,24.322,0,0,0,247.425,198c2.392-3.5,3.088-7.736,2.062-12.538a6.606,6.606,0,0,0-2.127-4.087c-.732-.7-.77-.754-.834-1.288-.173-1.44.952-6.114,2.817-11.7a90.485,90.485,0,0,0,3.582-14.047c.928-5.349,1.179-8.278,1.542-18.039.113-3.04.275-6.661.36-8.045s.2-3.251.256-4.147a95.432,95.432,0,0,0-.263-13.032c-1.062-10.808-4.247-20.2-9.585-28.259a59.576,59.576,0,0,0-17.157-16.772,87.538,87.538,0,0,0-27.465-11.423,120.74,120.74,0,0,0-20.241-3.084C179.1,51.442,176.022,51.382,173.1,51.37Zm.144,1.347c2.986.01,5.956.095,8,.255,13.823,1.081,26.32,4.161,37.151,9.156a66.8,66.8,0,0,1,21.541,15.491,3.143,3.143,0,0,1,.846,1.334c.242.831.358,1.086.58,1.279s.239.14.04-.493a1.725,1.725,0,0,1-.116-.521,39.578,39.578,0,0,1,2.872,3.74A59.082,59.082,0,0,1,254.2,110.532a60.751,60.751,0,0,1,.415,8.935c0,3.412-.05,5.335-.177,7.059-.233,3.155-.264,3.7-.385,6.762-.1,2.5-.276,3.858-.522,4a.3.3,0,0,0-.092.237c0,.134.055.168.206.131.194-.049.2,0,.2.854,0,2.468-.4,8.519-.723,10.964a91.933,91.933,0,0,1-4.255,18.186c-1.773,5.269-2.911,10.054-2.93,12.32-.012,1.442.087,1.723.861,2.428a6.219,6.219,0,0,1,1.308,1.431c0,.049-.063.09-.139.09a3.218,3.218,0,0,0-.632,1.035,6.444,6.444,0,0,1-.679,1.2c-.178.156-.2.136-.457-.418-.634-1.369-1.178-4.05-1.883-9.27-1.021-7.559-1.235-8.995-1.7-11.487-.261-1.385-.263-1.424-.082-1.748.2-.358.141-.543-.109-.342-.19.151-.146.266-.622-1.626a27.216,27.216,0,0,0-1.652-4.817,24.822,24.822,0,0,1-1.422-3.427,2.815,2.815,0,0,0-.2-.642,38.669,38.669,0,0,1-1.482-6.96,100.394,100.394,0,0,1-.628-15.289c.111-3.429.355-7.756.481-8.527.054-.337.035-.379-.224-.474a2.067,2.067,0,0,0-.7-.075c-.415.03-.416.03-.486.524a159.316,159.316,0,0,0-.4,17.572c.405,7.415,1.468,12.782,3.251,16.423a15.034,15.034,0,0,1,1.3,3.324.357.357,0,0,0,.1.324,23.231,23.231,0,0,1,1.185,4.265c.382,1.8.94,5.19,1.338,8.145.894,6.635,1.062,7.826,1.3,9.23.529,3.127,1.192,5.251,1.83,5.866a2.151,2.151,0,0,0,1.605.453c.416,0,1.006-.551,1.365-1.276a2.215,2.215,0,0,1,.367-.6,10.185,10.185,0,0,1,.524,2.172,17.352,17.352,0,0,1-.047,4.617,13.918,13.918,0,0,1-2.671,5.523c-.473.608-1.757,1.976-2.991,3.188-2.047,2.01-3.024,3.107-3.176,3.567-.054.163-.126.194-.357.149-.285-.055-.312-.015-1.9,2.729-.887,1.532-1.682,2.863-1.766,2.957a23.455,23.455,0,0,1-4.975,2.3c-1.187.4-1.336.416-1.245.142s-.017-.246-.346.1c-.272.287-.372.312-2.667.689-4.274.7-6.131,1.246-7.669,2.252-1.971,1.289-2.594,2.957-2.128,5.694a7.963,7.963,0,0,1-.007,3.132c-.239.676-.4.774-1.351.808-1.175.042-1.515.228-2,1.095a5.894,5.894,0,0,1-.834,1.123c-.439.425-.45.43-.739.281a6.423,6.423,0,0,0-.644-.279c-.347-.125-.353-.122-.716.313a3.178,3.178,0,0,1-2.834,1.524,10.159,10.159,0,0,0-1.689.25,4.838,4.838,0,0,0-2.616,1.826c-.1.173-.127.172-.57-.034a1.36,1.36,0,0,0-1.376-.029,3.961,3.961,0,0,0-1.567,1.713,2.732,2.732,0,0,1-.451.665,2.877,2.877,0,0,1-.564-.331c-.845-.578-1.128-.68-1.774-.635a2.075,2.075,0,0,0-1.725,1.18,1.958,1.958,0,0,1-.436.553,9.671,9.671,0,0,1-.736-.825,5.527,5.527,0,0,0-1.973-1.621,2.955,2.955,0,0,0-1.684.038c-1.052.426-2.419,2.264-3.228,4.338-.1.261-.235.454-.3.43-1.942-.767-2.284-.836-3.073-.615a3.17,3.17,0,0,0-1.863,1.793,4.977,4.977,0,0,1-.408.732,5.588,5.588,0,0,1-.513-.688,12.01,12.01,0,0,0-.944-1.195q-3.069-3.29-6.143,2.94c-.3.613-.562,1.115-.576,1.115a8.232,8.232,0,0,1-.313-.864,10.016,10.016,0,0,0-1.642-3.152c-1.287-1.379-2.787-1.167-4.595.648a15.9,15.9,0,0,0-1.422,1.664l-.575.814-.279-1.138a5.908,5.908,0,0,0-1.255-2.707c-.907-.688-1.939-.356-3.333,1.072a13.669,13.669,0,0,0-1.168,1.361l-.4.575-.062-1.827a15.519,15.519,0,0,0-.167-2.128c-.336-.975-.833-1.426-1.57-1.426-.915,0-1.817.471-3.314,1.732l-.867.731-.47-.786c-.829-1.384-1.529-1.868-2.7-1.872a4.429,4.429,0,0,0-1.427.256l-.778.259-.213-.284c-.984-1.311-1.9-1.7-3.208-1.376l-.629.157-.518-.528a5.364,5.364,0,0,0-1.058-.815,2.286,2.286,0,0,0-1.429-.288h-.89l-.288-.588c-.541-1.1-1.136-1.523-1.971-1.387-.39.063-.4.057-.521-.313a2.146,2.146,0,0,0-2.182-1.562l-.637-.03-.248-.437-.247-.438.288-.88c.879-2.68.034-5.024-2.742-7.611a24.543,24.543,0,0,0-6.326-4.169l-1.383-.649-1.742-.066a13.9,13.9,0,0,1-3.72-.475c-.017-.045-.109-.062-.2-.038a16.4,16.4,0,0,1-7.188-3.611c-.541-.482-.693-.571-.847-.491s-.2.057-.252-.08c-1.357-3.729-3.348-6.536-7.863-11.085-2.1-2.112-2.566-2.708-2.877-3.658a37.5,37.5,0,0,1-1.386-6.068c-.287-2.474.118-4.508,1.117-5.6a3.332,3.332,0,0,1,1.59-.879c.27-.029.309,0,.378.313a1.978,1.978,0,0,1-.017.741,5.058,5.058,0,0,0,.092,2.272c.239.887.371,1.117.684,1.193.9.218,2.916-.858,3.425-1.832.157-.3.191-.734.242-3.114a118.316,118.316,0,0,1,1.359-14.163c.08-.544.145-.968.2-1.309a.794.794,0,0,1-.041-.4,3.013,3.013,0,0,1,.2-.594c-.047.078-.053.2-.14.236-.059.022-.006-.124.005-.184a3.465,3.465,0,0,1,.138-.588,2.259,2.259,0,0,1,.114-.254h0c.017-.167.089-.56.191-1.1a.816.816,0,0,1,.1-.543l.033-.176c.668-3.507.976-4.566,1.812-6.234a25.453,25.453,0,0,0,2.857-12.481,41.225,41.225,0,0,0-2.32-13.43c-.95-2.829-2.739-6.979-3.009-6.979a2.711,2.711,0,0,0-1.022.538c-.116.135-.059.313.388,1.219a54.02,54.02,0,0,1,3.232,8.707c1.743,6.513,1.955,12.539.622,17.622a3.248,3.248,0,0,1-.408,1.066c-.095.051-.128.163-.09.308a12.751,12.751,0,0,1-1.447,3.711,26.36,26.36,0,0,0-2.145,7.854c-.244,1.5-.251,1.522-.436,1.453-.134-.049-.148-.018-.077.178.132.368.094.972-.191,2.954a112.049,112.049,0,0,0-1.263,14.657c.07,1.052-.065,1.421-.658,1.8-.675.43-.871.238-1.181-1.149a2.577,2.577,0,0,1-.058-1.375c.206-.963.1-1.85-.212-1.826-.142.011-.157-.079-.108-.642a10.587,10.587,0,0,0-1.4-5.436c-.333-.686-.726-1.6-.874-2.034-1.143-3.341-2.317-10.609-3.271-20.234-.351-3.542-.775-8.5-.937-10.81-.4-.223-.532-.453-.028-.455a6.545,6.545,0,0,1-.032-.828.19.19,0,0,1,.05.035c-.019-.068-.038-.137-.052-.206a2.381,2.381,0,0,1-.007-.583,39.018,39.018,0,0,1-.4-4.323c-.164-2.339-.388-5.163-.5-6.276a74.31,74.31,0,0,1-.465-10.021,64.366,64.366,0,0,1,.47-9.675,58.5,58.5,0,0,1,9.481-26.239c1.8-2.641,4.714-6.215,4.87-5.975.14.217.405-.03.615-.574.163-.421.491-.781,2.063-2.271,1.028-.974,2.446-2.241,3.15-2.815a71.35,71.35,0,0,1,19.575-11.113,110.916,110.916,0,0,1,31.514-6.649C167.257,52.776,170.259,52.708,173.246,52.717Zm69.165,28.938c-.044,0,.193.267.527.593.629.612.769.694.769.45A4.391,4.391,0,0,0,242.411,81.655Zm4.775,28.433M136.559,150.229c-7.716.033-14.862,2.8-18.765,7.255a17.448,17.448,0,0,0-3.228,5.34,3.96,3.96,0,0,1-.626,1.2c-.321.313-.349.415-.147.53.115.065.1.275-.1,1.215a24.8,24.8,0,0,0-.518,6.565,26.461,26.461,0,0,0,1.307,8.561,14.439,14.439,0,0,0,10.983,9.9,22,22,0,0,0,5.868.578,35.978,35.978,0,0,0,9.2-1.076c.131-.035.221-.057.341-.088a2.749,2.749,0,0,1,.528-.255c.035-.025.083-.059.106-.077l.071-.012a.869.869,0,0,1,.141-.083.741.741,0,0,1,.733.144h.015l.24-.246,2.255-.714c5.5-1.746,11.586-4.167,12.711-5.061a2.726,2.726,0,0,0,.631-.848c2.374-5.057,3.414-9.113,3.414-13.309a15.782,15.782,0,0,0-2.866-9.586,21.493,21.493,0,0,0-3.634-3.734c-3.695-2.851-8.766-4.872-14.868-5.926A16.178,16.178,0,0,0,136.559,150.229Zm5.02,39.637-.07.049C141.694,189.852,141.743,189.838,141.579,189.866Zm-.07.049-.107.04-.248.182.111-.028C141.347,190.046,141.427,189.978,141.509,189.915ZM209.17,150.63a15.38,15.38,0,0,0-5.722.689,25.739,25.739,0,0,0-5.126,2.418,23.3,23.3,0,0,0-8.833,11.143,10.189,10.189,0,0,1-.567,1.283.71.71,0,0,0-.125.395,6.757,6.757,0,0,1-.264,1.136c-.961,3.23-1.5,8.151-1.053,9.576,1.1,3.48,5.221,6.981,12.833,10.895a69.009,69.009,0,0,0,8.037,3.589c.7.218,1.427.455,1.606.527a7.244,7.244,0,0,0,1.486.195,7.959,7.959,0,0,1,1.213.117,34.893,34.893,0,0,0,4.765-.217c5.555-.836,10.794-3.483,13.862-7a17.61,17.61,0,0,0,3.957-7.658,33.526,33.526,0,0,0,.387-8.934A22.024,22.024,0,0,0,234.1,163a2.809,2.809,0,0,1-.256-.773.316.316,0,0,0-.137-.28,1.718,1.718,0,0,1-.409-.559,18.168,18.168,0,0,0-3.633-4.467C225.029,152.845,217.847,150.64,209.17,150.63Zm-73,.943c.337,0,.673,0,1.006.008a35.848,35.848,0,0,1,15.783,4.782c6.8,4.273,9.42,10.3,7.778,17.9-.678,3.132-2.5,7.748-3.3,8.4-1.67,1.335-14.021,5.769-18.679,6.705-.53.107-1.724.287-2.654.4a49.527,49.527,0,0,1-7.481.189,20.681,20.681,0,0,1-6.478-1.722c-4.638-2.252-7.319-6.41-8.248-12.785a40.309,40.309,0,0,1,0-7.848,17.123,17.123,0,0,1,8.013-12.121A28.718,28.718,0,0,1,136.168,151.573Zm72.612.3a43.851,43.851,0,0,1,10.708,1.4c9.33,2.589,14.509,8.3,15.414,16.99a36.874,36.874,0,0,1-.2,6.933,15.965,15.965,0,0,1-.574,2.369c-2.142,6.175-9.2,10.868-17.561,11.674a21.372,21.372,0,0,1-5.8-.251c-1.9-.37-3.435-.973-7.645-3-5.926-2.852-9.787-5.326-12.308-7.888-1.73-1.757-2.626-3.37-2.734-4.919a29.988,29.988,0,0,1,1.448-8.829,21.055,21.055,0,0,1,12.513-13.389,14.018,14.018,0,0,1,5.283-1.063C207.794,151.879,208.281,151.87,208.78,151.871Zm-35.062,20.771a.731.731,0,0,1-.3.132,9.764,9.764,0,0,0-3.862,2.12,9.545,9.545,0,0,0-1.872,2.746c-.172.4-.5,1.385-.734,2.193-.468,1.635-.425,1.533-.883,2.078a16.84,16.84,0,0,0-2.6,5.725c-.234.814-.494,1.7-.579,1.965a6.488,6.488,0,0,0-.187,1.333,38.824,38.824,0,0,1-2.165,9.851,40.943,40.943,0,0,0-1.753,5.746,13.937,13.937,0,0,0-.28,3.515,9.572,9.572,0,0,0,.756,4.662,11.219,11.219,0,0,0,5.886,5.759,18.894,18.894,0,0,0,5.342,1.436l.717.069,1.37,1.022a16.473,16.473,0,0,0,1.458,1.022,6.683,6.683,0,0,0,.922-.732,9.332,9.332,0,0,1,1.353-1c.5-.264.569-.272,2.217-.284a6.17,6.17,0,0,0,2.519-.287,7.85,7.85,0,0,0,3.236-2.03,12.467,12.467,0,0,0,2.709-3.81,22.416,22.416,0,0,0,2.067-6.516,19,19,0,0,0,.186-3.356c0-2.719-.092-3.179-.859-4.246-1.377-1.916-1.789-3.544-1.964-7.75-.058-1.384-.154-2.783-.214-3.109a6.078,6.078,0,0,1-.1-.79,3.67,3.67,0,0,0-.132-.594.761.761,0,0,1-.094.008c-.071,0-.123,0-.183-.006.023.078.074.249.083.278.048.168.031.17-.243.034a7.549,7.549,0,0,1-2.494-3.259,10.828,10.828,0,0,1-1.436-4.507,7.224,7.224,0,0,0-.9-3.307,18.663,18.663,0,0,0-5.859-5.824c-.124-.08-.216-.142-.3-.2A2.092,2.092,0,0,1,173.718,172.642Zm-.3,1.253c.391.006.708.244,1.467.794,3,2.173,5.029,4.613,5.593,6.739a3.413,3.413,0,0,1,.042,2.187c-.168.232-.124.418.1.418.077,0,.209.257.31.6a23.481,23.481,0,0,0,1.6,3.719,2.583,2.583,0,0,1,.507,1.448,2.907,2.907,0,0,0,.062.689c.107.268.246.171.246-.173,0-.488.1-.5.481-.07a4.654,4.654,0,0,0,.846.7c.664.415.7.584.822,3.718.128,3.29.283,4.383.856,6a7.045,7.045,0,0,0,1.055,2.036c.382.5.422.655.192.74-.188.07-.205.431-.02.431a.455.455,0,0,0,.261-.123c.179-.172.284.021.415.76a18.139,18.139,0,0,1-.3,6.6,13.961,13.961,0,0,1-1.184,3.731,1.432,1.432,0,0,0-.453.979,3.716,3.716,0,0,1-.373,1.065,8.481,8.481,0,0,1-4.453,3.627,6.251,6.251,0,0,1-2.552.3,9.3,9.3,0,0,0-1.993.134,8.642,8.642,0,0,0-1.9,1.337,1.371,1.371,0,0,1-.462.351c-.124,0-.361-.166-1.662-1.141-.876-.656-.983-.708-1.588-.772a18.912,18.912,0,0,1-5.816-1.635,10.678,10.678,0,0,1-4.931-4.471c-.522-.924-.518-1.1.014-.612l.421.391-.209-.4a5.189,5.189,0,0,0-.579-.83,2.432,2.432,0,0,1-.728-1.637,18.267,18.267,0,0,1-.05-4.635,6.787,6.787,0,0,1,.673-2.518c.186,0,.246-.211.118-.41s.024-.72.935-3.19a38.729,38.729,0,0,0,2.033-7.788,1.529,1.529,0,0,1,.157-.615.989.989,0,0,0,.088-.516,20.208,20.208,0,0,1,.61-4.017,10.692,10.692,0,0,1,.931-2.715c.054,0,.1-.114.1-.253a6.127,6.127,0,0,1,1.191-2.3,7.1,7.1,0,0,0,1.479-3.2,15.089,15.089,0,0,1,.775-2.226,6.211,6.211,0,0,1,3.579-2.873A4.072,4.072,0,0,1,173.417,173.9Zm66.38,33.389c.128.119-1.024,5.9-2,10.019-1.228,5.2-2.216,8.856-3.11,11.5a59.757,59.757,0,0,0-2.673,15.252c-.063.951-.111,3.838-.1,6.417.01,5.038-.022,5.488-.517,7.306a19.541,19.541,0,0,1-6.988,10.1c-1.1.855-12.452,9.527-15.289,11.682-10.8,8.206-18.067,13.305-20.845,14.635l-.964.46-5.544.063c-5.13.058-6.823.12-10.668.389-1.523.106-6.893.2-7.584.131a16.359,16.359,0,0,1-5.708-1.561c-4.469-2.217-15.964-9.973-25.24-17.028-4.892-3.722-6.078-4.763-8.549-7.506-3.681-4.086-5.063-5.955-5.807-7.859-.446-1.142-.477-1.6-.243-3.5a69.969,69.969,0,0,0,.208-9.774,83.738,83.738,0,0,0-2.844-18.165c-.252-.841-1.007-2.845-1.676-4.452-2.441-5.856-3.092-8.106-3.282-11.344-.059-1-.15-2.246-.2-2.759a8.162,8.162,0,0,1-.067-.961,4.534,4.534,0,0,1,.688.447,17.766,17.766,0,0,0,6.86,2.885,20,20,0,0,0,2.921.283l1.845.071.922.409.922.408-.035,1.065c-.15,4.6,1.664,10.775,5.11,17.4.92,1.77,2.508,4.536,3.069,5.347.385.557.386.561.441,1.826.084,1.926.438,2.741,1.536,3.533a7.593,7.593,0,0,1,1.078,1.006,2.416,2.416,0,0,0,2,1.023h.579l.112.42a9.668,9.668,0,0,0,.634,1.786,3.276,3.276,0,0,0,1.5,1.416,5.911,5.911,0,0,0,2.433.1l.519-.075.186.568a4.933,4.933,0,0,0,1.151,2.009,2.651,2.651,0,0,0,2.386.767l.908-.035.116.7a3.045,3.045,0,0,0,2.054,2.7,7.06,7.06,0,0,0,2.717-.15c1-.232,1.114-.208,1.521.323a7.75,7.75,0,0,0,2.015,1.817,3.967,3.967,0,0,0,2.318.178l.389-.124.358.435c.2.239.714.778,1.15,1.2a3.721,3.721,0,0,0,2.805,1.355,2.426,2.426,0,0,0,1.985-.816l.448-.447.725.586A4.712,4.712,0,0,0,169.23,262a3.111,3.111,0,0,0,2.2-.57,6.1,6.1,0,0,1,.66-.394,11.068,11.068,0,0,1,.862.772,3.64,3.64,0,0,0,2.855,1.349c1.174,0,1.6-.216,2.767-1.392l.938-.947.5.246a5.4,5.4,0,0,0,3.859.368,4.714,4.714,0,0,0,1.918-1.709l.33-.473.427.237a4.915,4.915,0,0,0,2.631.7,2.691,2.691,0,0,0,1.556-.267,4.925,4.925,0,0,0,2.083-2.259c.793-1.489.714-1.424,1.79-1.5a4.936,4.936,0,0,0,3.782-1.71l.643-.691.8-.059c1.417-.106,2.283-.515,2.681-1.267a5.251,5.251,0,0,0,.356-1.2,2.96,2.96,0,0,1,.276-.925,4.456,4.456,0,0,1,1.184-.275,7.212,7.212,0,0,0,2.853-.9,1.6,1.6,0,0,0,.755-1.527v-.642h1a2.681,2.681,0,0,0,1.416-.215,3.623,3.623,0,0,0,1.435-1.549,7.245,7.245,0,0,0,.557-1.846c0-.124.134-.178.561-.227a4.222,4.222,0,0,0,2.009-.745,4.974,4.974,0,0,0,.9-2.586l.172-1.146.576-.6c1.182-1.229,2.15-3.077,3.173-6.053a83.766,83.766,0,0,0,3.215-14.211,8.473,8.473,0,0,1,.528-2.531,30.281,30.281,0,0,1,5.06-1.067,23.666,23.666,0,0,0,8.166-2.683l.846-.441,1.105-1.908C239.264,208.11,239.778,207.266,239.8,207.284Zm-114.315,8.241a22.113,22.113,0,0,1,3.493,2.287c2.37,1.906,3.716,3.781,4.053,5.649a4.613,4.613,0,0,1-.261,2.5,5.564,5.564,0,0,0-.255.992,2.22,2.22,0,0,0,.524,1.17l.207.212-.218.677c-.816,2.531-.8,4.591.056,6.22.353.674.362.718.213,1a3.772,3.772,0,0,0-.24,1.012l-.082.72-.747-1.272c-4.4-7.494-6.888-14.659-6.888-19.838C125.337,215.774,125.364,215.525,125.482,215.525Zm96.629.184-.074.723c-.04.4-.231,1.675-.424,2.839-1.324,8-3.072,14.032-4.945,17.07-.481.779-.733,1.034-.737.743,0-.1-.065-.651-.144-1.221s-.135-1.041-.126-1.046l.5-.229c.42-.192.529-.309.819-.878l.336-.656.036-1.78a22.375,22.375,0,0,0-.133-3.2,9.889,9.889,0,0,1-.116-1.47c.03-.028.273-.19.54-.359,1.184-.748,1.362-1.71.895-4.829a4.525,4.525,0,0,1,.345-3.065,5.911,5.911,0,0,1,2.863-2.5Zm-5.922,10.528.137.888a29.46,29.46,0,0,1,.154,3.11c.02,2.558-.054,2.964-.65,3.568-.375.379-.382.382-1.172.382-.72,0-.788-.017-.715-.173a5.53,5.53,0,0,0,.123-1.076,6.731,6.731,0,0,0-.8-3.382l-.4-.829.5-.511a6.46,6.46,0,0,0,.822-1.058c.476-.811.636-.917,1.377-.918Zm-81.545,1.828a2.437,2.437,0,0,1,1.486.647c.35.46.334.846-.062,1.536A8.118,8.118,0,0,0,135,234.816a5.171,5.171,0,0,0,.409,2.009c.068.084.061.123-.021.123a1.671,1.671,0,0,1-.527-.43,4.738,4.738,0,0,1-1.571-3.864,10.287,10.287,0,0,1,.681-3.571l.334-1.017Zm76.866.418a.08.08,0,0,1,.044,0,10.4,10.4,0,0,1,1.46,2.836,4.577,4.577,0,0,1,.082,3.061,8.8,8.8,0,0,0-.43,1.136,1.9,1.9,0,0,1-1.248,1.432,3.35,3.35,0,0,1-.748.1c-.395,0-.4,0-.329-.32a9.73,9.73,0,0,0-.833-5.636,5.681,5.681,0,0,1-.322-.9c.019-.013.242-.139.5-.279a6.543,6.543,0,0,0,1.092-.87A2.229,2.229,0,0,1,211.51,228.483Zm-74.209,1.5.441.01c.526.012.888.339,1.176,1.066l.182.461-.415.811a8.374,8.374,0,0,0-.963,4.917,4.679,4.679,0,0,0,.856,2.379c.221.164.223.174.031.166a2.96,2.96,0,0,1-1.645-.6,2.888,2.888,0,0,1-1.007-2.3c-.022-.272-.094-.867-.16-1.325a7.425,7.425,0,0,1,1.022-4.779Zm70.459.247c.385,0,.4.014.69.638a12.045,12.045,0,0,1,1.213,4.987,2,2,0,0,1-.366,1.344c-.711,1.067-.82,1.155-1.675,1.363a9.069,9.069,0,0,1-1.04.184l-.487.049v-.459a15.028,15.028,0,0,0-1.252-5.287l-.522-1.278.412-.353A5.258,5.258,0,0,1,207.76,230.235Zm-67.213,1.679a2.6,2.6,0,0,1,2.1,1l.232.3-.507.758a12.242,12.242,0,0,0-1.881,3.9,7.741,7.741,0,0,0-.105,3.15c.063.149.08.266.039.26-.316-.049-.433-.129-.433-.3a1.058,1.058,0,0,0-.61-.875c-.217-.086-.312-.192-.312-.347a1.9,1.9,0,0,0-.155-.58,8.044,8.044,0,0,1,.767-6.8C139.985,231.917,139.992,231.914,140.547,231.914Zm61.916.2a1.914,1.914,0,0,1,1.482,1.113,15.138,15.138,0,0,1,1.33,5.232c0,.448-.042.569-.269.771a4.872,4.872,0,0,0-.619.758,3.925,3.925,0,0,1-1.356,1.4,1.358,1.358,0,0,1-1.025.215c-.237-.063-.246-.1-.226-.853a24.06,24.06,0,0,0-.9-5.22c-.453-1.73-.461-1.622.169-2.458A2.111,2.111,0,0,1,202.463,232.111Zm-10.679.71c.809-.01,1.779.665,2.732,1.908.448.584.453.6.635,1.972.287,2.167.576,4.923.653,6.232.067,1.134.057,1.222-.174,1.674a5.145,5.145,0,0,1-1.761,1.757,2.844,2.844,0,0,1-.718.207,5.56,5.56,0,0,1-1.828-.239c-.366-.132-.375-.15-.494-.884a27.865,27.865,0,0,0-2.118-6.564,11.606,11.606,0,0,1-.653-1.683,12.808,12.808,0,0,1,1.71-3.162,3.243,3.243,0,0,1,1.856-1.207A1.217,1.217,0,0,1,191.784,232.821Zm-46.846.5a2.251,2.251,0,0,1,.641.078c.467.148,1.28.9,1.28,1.184a4.76,4.76,0,0,1-.449,1.063,32.243,32.243,0,0,0-1.806,4.417,9.78,9.78,0,0,0-.278,1.641l-.056.852-.463.061a6.142,6.142,0,0,1-.678.057,4.565,4.565,0,0,1-1.967-1.18,6.713,6.713,0,0,1-.119-1.1,8.462,8.462,0,0,1,1.166-4.46,12.571,12.571,0,0,1,1.7-2.426A2.368,2.368,0,0,1,144.938,233.317Zm52.625.3a1.353,1.353,0,0,1,.207.022,3.85,3.85,0,0,1,1.6.874c.361.3.42.427.691,1.457.639,2.424,1.06,5.18.832,5.444a4.942,4.942,0,0,0-.369.795,4.076,4.076,0,0,1-1.442,2,2.033,2.033,0,0,1-1.8.054l-.462-.179-.079-.877a69.715,69.715,0,0,0-.9-7.718c-.173-.4.409-1.273,1.108-1.669A1.144,1.144,0,0,1,197.563,233.616Zm-47.923.912a2.753,2.753,0,0,1,2.514,1.769l.278.545-.481.967a21.384,21.384,0,0,0-.843,2,24.61,24.61,0,0,0-.969,4.225c0,.182-.053.321-.122.321a4.226,4.226,0,0,0-.827.41,2.2,2.2,0,0,1-1.972.347,9.273,9.273,0,0,1-1.846-1.786c-.273-.346-.282-.388-.228-1.268a16.6,16.6,0,0,1,1.991-5.819c.527-1.064.607-1.171,1-1.349a5.679,5.679,0,0,1,1.048-.311A2.821,2.821,0,0,1,149.64,234.528Zm7.538.189a.888.888,0,0,1,.544.207c.611.532.869,1.61.8,3.335a6.687,6.687,0,0,1-.571,2.688,12.3,12.3,0,0,0-.842,4.3v.957l-.62.268a4.724,4.724,0,0,1-2.249.292,8.313,8.313,0,0,1-2.433-1.451c-.744-.619-.937-.831-.9-1,.025-.115.1-.52.158-.9a18.967,18.967,0,0,1,1.777-5.375,4.1,4.1,0,0,1,1.573-1.981A4.8,4.8,0,0,1,157.178,234.717Zm57.112.06c.471,0,.455-.033.618,1.281a5.111,5.111,0,0,1-.02,2.253c-.095.092-.095.145,0,.237.165.159.156.69-.03,1.623-.316,1.593-.607,2.057-1.475,2.352-.805.274-.778.313-.794-1.156a24.759,24.759,0,0,0-.189-2.59l-.175-1.282.24-.149a2.341,2.341,0,0,0,1.02-1.434C213.827,234.775,213.827,234.777,214.29,234.777Zm-80.245,1.777a5,5,0,0,1,1.362,1.579c.243.536.244.556.1,1.58a19.511,19.511,0,0,0-.111,2.641c.017.882.018,1.6,0,1.6s-.3-.255-.631-.568a2.28,2.28,0,0,1-.77-1.11,14.273,14.273,0,0,1-.189-5.379A.919.919,0,0,1,134.045,236.554Zm44.43.1a3.566,3.566,0,0,1,2.485,1.8c.773,1.082.821,1.208,1.25,3.306a31.832,31.832,0,0,1,.763,5.449l.012.931-.615.422a9.562,9.562,0,0,1-2.891,1.324,6.032,6.032,0,0,1-4.9-.842l-.593-.365.071-2.139c.039-1.177.129-2.834.2-3.685l.131-1.545.539-1.066C176.107,237.905,177.342,236.657,178.475,236.657Zm-15.645.1c.82-.007,1.558,1.156,1.926,3.037l.18.923-.381,1.449a19.3,19.3,0,0,0-.86,4.822l-.057,1.4-.831.155a6.763,6.763,0,0,1-2.266.154,3.329,3.329,0,0,1-2.276-1.347c-.336-.456-.338-.464-.338-1.621a13.59,13.59,0,0,1,1.23-5.466C159.694,238.817,161.85,236.762,162.83,236.753Zm7.235.2c1.205,0,2.293,1.25,3.085,3.553l.289.838-.126,1.975c-.069,1.086-.152,2.73-.185,3.653-.068,1.893-.038,1.82-.955,2.412a6.157,6.157,0,0,1-2.132.884,5.489,5.489,0,0,1-.973.1,5.6,5.6,0,0,1-2.967-.97.59.59,0,0,0-.364-.206,2.039,2.039,0,0,1-.66-.29c-.423-.259-.481-.339-.545-.75-.171-1.1.4-4.309,1.229-6.908a3.4,3.4,0,0,0,.159-.7,8.474,8.474,0,0,1,1.954-2.45A3.629,3.629,0,0,1,170.065,236.95Zm14.911.119a3.454,3.454,0,0,1,1.521.394c.8.379.855.458,1.859,2.891s1.823,5.314,1.6,5.62c-.056.074-.323.446-.595.827a7.728,7.728,0,0,1-2.216,2.091,3.4,3.4,0,0,1-1.023.268,1.742,1.742,0,0,1-1.186-.259c-1.081-.537-1.036-.45-1.106-2.133-.034-.812-.157-2.055-.273-2.76-.275-1.674-.821-4.3-.939-4.512-.134-.244.311-1.152.831-1.7A2.106,2.106,0,0,1,184.976,237.069Zm26,.471c.407,0,.388.12.6,1.975a9.652,9.652,0,0,1,.008,3.4c-.081.277-.226.809-.322,1.182a3.5,3.5,0,0,1-1.5,2.292,2.768,2.768,0,0,1-.961.138h-.684l.071-.32a16.8,16.8,0,0,0,.273-5.01c-.064-.788-.143-1.572-.175-1.742-.055-.288-.032-.319.318-.43a2.5,2.5,0,0,0,1.25-1.027c.217-.409.3-.451.916-.453Zm-3.8,1.762c.1.007.17.029.186.071.027.067.1.753.173,1.524.21,2.372,0,5.19-.418,5.678-.091.106-.111.329-.066.747a1.357,1.357,0,0,1-.721,1.574,5.509,5.509,0,0,1-1.108.482c-.8.235-1.384.335-1.381.236,0-.043.047-.5.1-1.016a25.7,25.7,0,0,0-.3-5.243l-.188-1.224.218-.147a6.271,6.271,0,0,0,1.473-1.526,3.7,3.7,0,0,1,.813-.869A2.749,2.749,0,0,1,207.178,239.3Zm-70.737.245a5.7,5.7,0,0,1,.723.319,3.662,3.662,0,0,0,.919.341,3.1,3.1,0,0,1,.615.107l.4.106-.069.5c-.037.275-.18.949-.317,1.5a15.129,15.129,0,0,0-.429,2.85c.013.058-.116.14-.285.181s-.4.1-.519.138a.7.7,0,0,1-.722-.5,5.556,5.556,0,0,0-.231-.73,8.566,8.566,0,0,1-.224-3.5C136.365,240.145,136.429,239.558,136.441,239.547Zm3.572,2.1a3.4,3.4,0,0,1,1.258.582,9.53,9.53,0,0,0,1.107.652l.491.229-.081.991a19.938,19.938,0,0,0,.1,4.52c.085.258.125.486.088.508s-.317.11-.623.2a1.731,1.731,0,0,1-1.519-.049,2.672,2.672,0,0,1-1.269-1.422c-.387-.8-.687-1.91-.54-2a2.863,2.863,0,0,0,.178-1.008,16.2,16.2,0,0,1,.628-3.152C139.86,241.654,139.923,241.64,140.013,241.649Zm61.594.41.412.053a1.306,1.306,0,0,1,.5.138c.294.283.7,5.526.534,6.84-.073.566-.116.656-.366.772-.405.186-.561.468-.688,1.241a5.59,5.59,0,0,1-.247.989,2.214,2.214,0,0,1-1.265,1.035,3.239,3.239,0,0,1-1.257.161c0-.036.09-.407.2-.823a14.341,14.341,0,0,0,.1-6.2c-.112-.63-.2-1.184-.2-1.231s.164-.158.363-.25a3.762,3.762,0,0,0,1.492-1.863Zm-57.285,1.168c.2.019.368.212,1.163,1.083a5.378,5.378,0,0,0,1.254,1.03l.63.346-.063,2.073a20.816,20.816,0,0,0,.23,4.459c.051.183,0,.231-.334.321h0a1.524,1.524,0,0,1-1.213-.048c-.812-.406-1.216-1.027-1.872-2.879l-.482-1.36v-2.023c0-1.113.036-2.23.08-2.482.072-.418.107-.463.4-.5.044-.007.083-.013.118-.016A.431.431,0,0,1,144.322,243.227Zm52.485,1.425c.064,0,.439.084.833.183l.717.182.245,1.075a12.285,12.285,0,0,1,.256,3.246,9.526,9.526,0,0,1-.23,3.095,2.82,2.82,0,0,1-.856,1.611,4.116,4.116,0,0,1-2.108,1.466,8.372,8.372,0,0,1-1.353.259l-.693.062.053-1.581a25.682,25.682,0,0,0-.444-5.546c-.137-.783-.25-1.433-.25-1.444a4.1,4.1,0,0,1,.538-.088,3.782,3.782,0,0,0,2.745-1.886A2.112,2.112,0,0,1,196.807,244.652Zm-46.455.365a.253.253,0,0,1,.082,0c.192.03.476.24,1.14.757.423.331.878.668,1.01.751.238.149.239.157.11.938a20.39,20.39,0,0,0,.043,4.982,17.624,17.624,0,0,0,.93,2.988c.062.133.033.173-.129.173a11.454,11.454,0,0,0-1.266.246c-1.258.293-1.441.3-1.992.058-.745-.326-1.172-1.061-1.423-2.446a4.111,4.111,0,0,0-.3-1.043c-.316-.466-.485-3.735-.3-5.826l.066-.747.365-.065a4.155,4.155,0,0,0,1.437-.654A.484.484,0,0,1,150.352,245.017Zm40.255,1.606a3.645,3.645,0,0,1,1.338.484,14.443,14.443,0,0,1,.35,1.59,23.2,23.2,0,0,1,.482,6.436,3.917,3.917,0,0,1-.7,2.2,4.986,4.986,0,0,1-1.893,2.215,2.913,2.913,0,0,1-2.072.022,5.157,5.157,0,0,1-1.588-.891c0-.04.116-.448.258-.905a18.569,18.569,0,0,0,.673-6.734,11.842,11.842,0,0,0-.175-1.2c-.035-.089.16-.244.564-.452a7.265,7.265,0,0,0,2.284-2.134A4.03,4.03,0,0,1,190.607,246.623ZM157.226,247l.169.233c.093.128.319.392.5.587l.333.354.046,3a27.176,27.176,0,0,0,.523,6.052,3.031,3.031,0,0,1,.131.595l-.518.233a2.457,2.457,0,0,1-.768.219c-.853,0-2.517-1.543-3.143-2.907a12.3,12.3,0,0,1-1.041-5.928c.037-.868.094-1.75.128-1.959.056-.35.081-.375.33-.317.148.034.713.089,1.254.121a3.654,3.654,0,0,0,1.52-.114Zm26.335,1.771.911.417a6.654,6.654,0,0,0,1.325.471,1.089,1.089,0,0,1,.51.166c.39.453.4,4.772.017,6.49a7.363,7.363,0,0,1-.867,2.553c-.124.136-.4.5-.622.82a3.655,3.655,0,0,1-1.677,1.433,3.8,3.8,0,0,1-2.77-.514c-.421-.208-.531-.308-.48-.437a33.874,33.874,0,0,0,1.248-8.574l.068-1.537.365-.148a10.985,10.985,0,0,0,1.169-.643Zm-24.342.027a4.758,4.758,0,0,1,.656.208,7.152,7.152,0,0,0,3.407.113l.9-.183.513.285c.6.336.56-.074.4,3.738a36.833,36.833,0,0,0,.168,6.255c.059.212-.7,1.206-1.185,1.545-.908.639-2.246-.057-3.752-1.951-.375-.471-.554-.78-.513-.884a1.617,1.617,0,0,0-.093-.68,22.988,22.988,0,0,1-.53-5.558A21.293,21.293,0,0,1,159.219,248.8Zm14.636.494a8.274,8.274,0,0,1,1.2.492,12.666,12.666,0,0,0,1.726.661,8.962,8.962,0,0,0,3.116.051l.4-.111-.069,1.552a41.962,41.962,0,0,1-.831,6.883,3.63,3.63,0,0,1-.857,1.917c-.207.2-.667.665-1.022,1.032a4.392,4.392,0,0,1-1,.809,1.919,1.919,0,0,1-1.579-.083,9.073,9.073,0,0,1-1.987-1.73,1.268,1.268,0,0,0-.564-.378l-.281-.054.279-.806a42.615,42.615,0,0,0,1.316-9.618C173.71,249.44,173.745,249.289,173.855,249.289Zm-1.038.687-.071,1.26c-.223,3.934-.855,7.577-1.561,8.989a3.483,3.483,0,0,0-.288.708c0,.079-.253.268-.556.42a1.463,1.463,0,0,1-1.5.1,6.021,6.021,0,0,1-2.576-1.968c-.33-.763-.43-5.828-.171-8.773l.062-.708.575.245a7.907,7.907,0,0,0,2.93.621,5.461,5.461,0,0,0,2.555-.6Z" transform="translate(-4.079 -4.776)"/>
  </g>
  <g id="Layer_3" data-name="Layer 3">
    <circle class="cls-2" cx="132.301" cy="166.02" r="14.52"/>
    <circle class="cls-3" cx="207.174" cy="166.02" r="14.52"/>
  </g>
</svg>
