<?xml version="1.0" encoding="UTF-8" standalone="no"?>
<!-- Created with Inkscape (http://www.inkscape.org/) -->
<svg xmlns:dc="http://purl.org/dc/elements/1.1/" xmlns:cc="http://creativecommons.org/ns#" xmlns:rdf="http://www.w3.org/1999/02/22-rdf-syntax-ns#" xmlns:svg="http://www.w3.org/2000/svg" xmlns="http://www.w3.org/2000/svg" xmlns:sodipodi="http://sodipodi.sourceforge.net/DTD/sodipodi-0.dtd" xmlns:inkscape="http://www.inkscape.org/namespaces/inkscape" id="svg3766" version="1.1" inkscape:version="0.91 r13725" width="744" height="1052.4" viewBox="0 0 744 1052.4" sodipodi:docname="skull.svg">
  <metadata id="metadata3772">
    <rdf:RDF>
      <cc:Work rdf:about="">
        <dc:format>image/svg+xml</dc:format>
        <dc:type rdf:resource="http://purl.org/dc/dcmitype/StillImage"/>
        <dc:title/>
      </cc:Work>
    </rdf:RDF>
  </metadata>
  <defs id="defs3770"/>
  <sodipodi:namedview pagecolor="#ffffff" bordercolor="#666666" borderopacity="1" objecttolerance="10" gridtolerance="10" guidetolerance="10" inkscape:pageopacity="0" inkscape:pageshadow="2" inkscape:window-width="1440" inkscape:window-height="862" id="namedview3768" showgrid="false" inkscape:zoom="1.6398134" inkscape:cx="372" inkscape:cy="453.02095" inkscape:window-x="0" inkscape:window-y="0" inkscape:window-maximized="0" inkscape:current-layer="svg3766"/>
  <path style="fill:#000000" d="M 375.01953 131.16797 C 372.17048 131.1557 369.37287 131.15917 366.83984 131.18164 C 363.46247 131.2116 360.5555 131.27401 358.62305 131.37305 C 319.20194 133.39327 281.78915 141.78201 250.80078 155.55078 C 232.37573 163.7374 217.2251 173.02301 202.58594 185.09961 C 197.41299 189.36706 185.59621 201.12729 181.48633 206.09961 C 160.54067 231.44062 147.96605 260.66331 142.68164 296.27539 C 139.45362 318.02927 139.10495 340.60266 141.60547 366 C 141.92225 369.2175 142.59305 377.9925 143.0957 385.5 C 145.84194 426.51756 148.41517 453.40716 151.67773 475.19922 C 154.12029 491.51409 156.09308 499.3608 159.73828 507.24414 C 161.84181 511.79337 163.09739 515.47864 163.38867 517.95703 C 163.62009 519.92608 163.34255 520.35308 161.6543 520.62305 C 157.36883 521.30834 153.90234 524.99851 152.55273 530.3125 C 150.50703 538.36729 151.32732 548.72651 155.11719 562.68359 C 157.01855 569.68577 156.95547 569.58912 166.31836 579.49023 C 176.67204 590.43906 181.85247 597.59049 185.73047 606.28125 C 186.53836 608.09178 187.19922 609.82861 187.19922 610.14062 C 187.19922 610.45263 187.4037 611.11486 187.65234 611.61328 C 188.77567 613.86502 189.33551 617.21862 189.61914 623.40039 C 189.77434 626.78289 190.1115 631.09512 190.36914 632.98438 C 191.30413 639.84046 194.12119 649.12253 198.62305 660.18359 C 203.60685 672.42881 204.84482 676.22969 207.00781 685.9043 C 212.37782 709.92332 214.39452 740.25387 211.9082 759.59961 C 211.6226 761.8215 211.49058 764.328 211.58398 765.75 C 211.95893 771.45828 215.54223 778.63698 222.13281 786.88281 C 227.57026 793.68591 236.53523 803.70184 239.75781 806.57617 C 254.0396 819.31456 288.44121 845.13929 311.25 860.24414 C 329.93115 872.61548 335.49357 875.15887 346.34961 876.28516 C 350.06277 876.67039 361.2924 876.42587 372.59961 875.71484 C 385.61634 874.89632 400.11585 874.43318 409.05078 874.55078 L 416.55078 874.65039 L 418.94922 873.50586 C 429.57696 868.43994 450.69674 852.68682 508.96484 806.36328 C 513.41159 802.82805 519.2775 798.18723 522 796.05078 C 527.44296 791.77947 532.7713 786.77811 535.58203 783.30078 C 540.97354 776.63055 545.13184 768.34248 547.05664 760.42773 C 548.51233 754.44192 548.70008 751.693 548.70508 736.25977 C 548.70952 721.66573 548.94892 714.94617 549.75391 706.94922 C 551.05921 693.98226 553.21951 683.14143 556.50586 673.05078 C 561.73459 656.99595 569.72494 621.69109 571.78711 605.53516 C 572.3623 601.02895 573.08249 598.95423 574.9043 596.55078 C 575.40458 595.89078 578.46604 592.64961 581.70703 589.34961 C 588.30532 582.63126 590.01373 580.65216 592.58203 576.75 C 599.5834 566.11245 601.6219 553.2432 598.61719 538.65039 C 597.35026 532.49742 595.99756 529.79786 592.39258 526.23242 C 590.2483 524.11163 590.13945 523.93875 589.95117 522.31641 C 589.44324 517.94013 592.73646 503.73648 598.19727 486.75 C 603.16026 471.31215 606.18369 459.00368 608.68164 444.06641 C 611.40003 427.81124 612.13265 418.90977 613.19531 389.25 C 613.52636 380.01 614.00103 369.00828 614.25 364.80078 C 614.49897 360.59328 614.83746 354.92172 615 352.19922 C 615.65661 341.20227 615.32559 324.17043 614.23047 312.59961 C 611.12211 279.75706 601.79781 251.22309 586.17188 226.72656 C 573.66652 207.12213 556.1943 189.39085 535.94922 175.75977 C 512.86686 160.21833 486.51981 148.84279 455.55078 141.04883 C 436.50315 136.25512 418.35909 133.38564 396.30078 131.67773 C 392.5774 131.38944 383.56669 131.20476 375.01953 131.16797 z M 375.44141 135.26367 C 384.18329 135.2918 392.87751 135.55239 398.84961 136.03711 C 439.31277 139.32125 475.89249 148.6806 507.59961 163.86133 C 532.38237 175.72682 554.38587 192.1534 570.6543 210.93555 C 572.19918 212.71916 572.74413 213.6102 573.13086 214.98633 C 573.84063 217.51195 574.17976 218.28823 574.82812 218.875 C 575.51508 219.49667 575.52902 219.29922 574.94531 217.375 C 574.6993 216.56404 574.54792 215.85237 574.60742 215.79297 C 574.78637 215.61401 579.69996 222.25798 583.01367 227.1582 C 598.99251 250.78707 608.98226 279.24259 612.42773 310.94922 C 613.50569 320.86896 613.64662 324.03129 613.64062 338.09961 C 613.63621 348.46881 613.49568 354.31161 613.12305 359.55078 C 612.44109 369.13842 612.35009 370.80432 611.99609 380.09961 C 611.70653 387.70224 611.18791 391.82385 610.4668 392.26953 C 610.31992 392.36031 610.19922 392.6854 610.19922 392.99023 C 610.19922 393.39652 610.36068 393.50183 610.80078 393.38672 C 611.36858 393.23825 611.40039 393.37761 611.40039 395.98438 C 611.40039 403.48173 610.23213 421.8693 609.2832 429.30078 C 606.79236 448.80762 603.07646 465.29095 596.82812 484.56445 C 591.63743 500.57584 588.3066 515.11365 588.25 522 C 588.214 526.38255 588.50483 527.23607 590.77148 529.37891 C 592.88942 531.38123 594.59961 533.32409 594.59961 533.72852 C 594.59961 533.87792 594.41584 534 594.19141 534 C 593.96482 534 593.1431 535.39913 592.34375 537.14648 C 591.55211 538.877 590.65781 540.51739 590.35547 540.79102 C 589.83275 541.26406 589.7677 541.20151 589.01758 539.51953 C 587.16232 535.35967 585.56797 527.2125 583.50391 511.34961 C 580.51519 488.38065 579.89149 484.01554 578.51953 476.44336 C 577.75678 472.23361 577.75103 472.11543 578.28125 471.13086 C 578.86694 470.04332 578.69426 469.48322 577.96094 470.0918 C 577.40522 470.55302 577.53394 470.89998 576.14062 465.15039 C 574.79521 459.59811 573.12188 454.53427 571.30469 450.51367 C 568.99406 445.40128 567.31747 441.20718 567.14062 440.09961 C 567.04845 439.52211 566.7794 438.64539 566.54492 438.15039 C 565.43765 435.813 563.28967 425.34021 562.20703 417 C 560.56903 404.38185 559.86682 386.62761 560.36914 370.53906 C 560.69443 360.12099 561.40807 346.97145 561.77539 344.62695 C 561.93547 343.60515 561.87781 343.47595 561.11914 343.1875 C 560.66074 343.01327 559.73847 342.91174 559.07031 342.96094 C 557.85597 343.05034 557.85442 343.05144 557.64844 344.55078 C 556.5236 352.73883 555.80705 385.30596 556.47266 397.94922 C 557.65889 420.48138 560.76804 436.79123 565.98828 447.85352 C 568.01919 452.15723 570.01049 457.42387 569.80664 457.95508 C 569.70815 458.21176 569.83836 458.65508 570.0957 458.93945 C 570.64494 459.54638 572.30112 465.73569 573.56445 471.90039 C 574.68297 477.35829 576.31482 487.67292 577.48047 496.65039 C 580.09836 516.81288 580.58904 520.43253 581.28516 524.69922 C 582.83556 534.20217 584.77505 540.65591 586.64258 542.52344 C 587.61878 543.49964 588.98653 543.90039 591.3418 543.90039 C 592.56013 543.90039 594.28627 542.22562 595.33789 540.02539 C 595.81798 539.02093 596.30132 538.19922 596.41211 538.19922 C 596.60489 538.19922 597.166 540.61656 597.94531 544.80078 C 598.51696 547.8699 598.43871 555.87613 597.80859 558.83008 C 596.55645 564.69976 593.90895 570.38212 589.98828 575.61328 C 588.60321 577.46134 584.84688 581.61882 581.23438 585.30078 C 575.24058 591.40977 572.38126 594.74251 571.9375 596.14062 C 571.77988 596.63725 571.56884 596.72899 570.89258 596.59375 C 570.0584 596.42692 569.9774 596.54852 565.32617 604.88672 C 562.72973 609.54131 560.40411 613.58535 560.1582 613.87305 C 559.15737 615.04392 550.8007 619.05927 545.5957 620.87109 C 542.12017 622.08087 541.68498 622.13337 541.94922 621.30078 C 542.21688 620.45748 541.90014 620.55346 540.9375 621.60742 C 540.14016 622.48039 539.84936 622.55781 533.13086 623.70117 C 520.62041 625.83021 515.18173 627.48762 510.67969 630.54492 C 504.91066 634.46259 503.08655 639.53199 504.45312 647.84961 C 505.03913 651.41559 505.02984 655.61159 504.43164 657.36719 C 503.73204 659.42042 503.25114 659.71759 500.47656 659.82031 C 497.03598 659.94766 496.04083 660.51327 494.61328 663.15039 C 493.98805 664.30539 492.8894 665.84088 492.17188 666.5625 C 490.88769 667.85394 490.85529 667.86724 490.00977 667.41406 C 489.53733 667.16083 488.68915 666.77956 488.125 666.56836 C 487.10881 666.18787 487.08958 666.19752 486.02734 667.51758 C 483.09013 671.16774 481.80516 671.88411 477.73047 672.14844 C 476.09124 672.25479 473.86645 672.5975 472.78711 672.91016 C 469.71943 673.79876 466.46676 676.15567 465.13086 678.45703 C 464.82417 678.98536 464.75814 678.98148 463.46094 678.35352 C 461.82345 677.56083 461.02374 677.54337 459.43359 678.26562 C 457.93419 678.94669 456.29219 680.8112 454.84766 683.4707 C 454.24427 684.58166 453.64875 685.49114 453.52539 685.49414 C 453.40203 685.49696 452.65914 685.04346 451.875 684.48633 C 449.4021 682.72932 448.57452 682.4217 446.68164 682.55859 C 444.52224 682.7148 443.15321 683.68804 441.63281 686.14453 C 441.03764 687.10621 440.46206 687.86157 440.35547 687.82227 C 440.24888 687.78297 439.2811 686.65498 438.20312 685.31641 C 436.23172 682.86826 434.05007 681.00853 432.42578 680.39062 C 431.19656 679.92301 428.74451 679.98077 427.49609 680.50586 C 424.41911 681.80003 420.41559 687.38762 418.04883 693.68945 C 417.75153 694.48112 417.3605 695.06824 417.17969 694.99414 C 411.49454 692.66431 410.49275 692.45564 408.18359 693.12695 C 406.01762 693.75659 404.14767 695.62369 402.72852 698.57422 C 402.13962 699.79858 401.60266 700.80078 401.53516 700.80078 C 401.46766 700.80078 400.79299 699.85927 400.03516 698.70898 C 399.27736 697.55869 398.03321 695.92343 397.27148 695.07617 C 391.28132 688.41371 385.2872 691.39291 379.28906 704.01172 C 378.40316 705.87541 377.64416 707.40039 377.60156 707.40039 C 377.55896 707.40039 377.14629 706.21914 376.68555 704.77539 C 375.47544 700.98351 373.44662 696.939 371.87891 695.19531 C 368.11217 691.00581 363.72112 691.6485 358.42969 697.16406 C 357.06523 698.5863 355.19108 700.86264 354.26562 702.22266 L 352.58398 704.69531 L 351.76562 701.23633 C 350.8745 697.465 349.31406 693.96971 348.09375 693.00977 C 345.43665 690.91973 342.41777 691.92859 338.33594 696.26758 C 337.09847 697.58305 335.56036 699.44412 334.91797 700.4043 L 333.75 702.15039 L 333.56836 696.59961 C 333.46795 693.54711 333.24787 690.63744 333.08008 690.13281 C 332.09509 687.1701 330.64092 685.80078 328.48242 685.80078 C 325.80483 685.80078 323.16464 687.23198 318.7832 691.0625 L 316.24414 693.2832 L 314.86719 690.89648 C 312.44184 686.69165 310.39211 685.21903 306.95117 685.20703 C 305.66684 685.20256 304.3134 685.45479 302.77344 685.98633 L 300.49609 686.77148 L 299.87305 685.91016 C 296.99304 681.92421 294.3189 680.73441 290.48242 681.72852 L 288.64062 682.20508 L 287.12305 680.60156 C 286.2889 679.71959 284.89537 678.60596 284.02734 678.125 C 282.62376 677.34736 282.16107 677.25 279.84375 677.25 L 277.23828 677.25 L 276.39453 675.46094 C 274.81241 672.10682 273.06998 670.83299 270.625 671.24609 C 269.48363 671.4389 269.45437 671.42128 269.09961 670.29688 C 268.13207 667.23021 266.0861 665.70924 262.71484 665.54883 L 260.84961 665.45898 L 260.12305 664.13086 L 259.39844 662.80078 L 260.24219 660.125 C 262.81479 651.98024 260.34348 644.85789 252.2168 636.99609 C 247.19307 632.13609 240.90167 627.83218 233.69922 624.32812 L 229.65039 622.35742 L 224.55078 622.15625 C 219.54502 621.9581 213.83648 621.20015 213.66016 620.71094 C 213.61099 620.57441 213.34138 620.52446 213.06055 620.59766 C 212.24408 620.81036 205.63922 618.39457 202.13281 616.60156 C 198.44551 614.71603 194.80463 612.2044 192.01953 609.625 C 190.43586 608.15815 189.99178 607.88963 189.54102 608.13086 C 189.11591 608.35838 188.94867 608.30495 188.80273 607.88867 C 184.82975 596.55635 179.00156 588.02791 165.78516 574.20508 C 159.64766 567.78595 158.27522 565.97467 157.36328 563.08789 C 155.66225 557.70316 153.83902 549.41475 153.30664 544.65039 C 152.46633 537.13017 153.65267 530.95106 156.57812 527.61914 C 157.60938 526.44461 159.97456 525.08647 161.23047 524.94727 C 162.02257 524.85952 162.13591 524.95668 162.33789 525.90039 C 162.46148 526.47789 162.4396 527.49039 162.28906 528.15039 C 161.85737 530.04303 161.96213 532.76659 162.55664 535.05469 C 163.25715 537.75076 163.64352 538.44953 164.56055 538.67969 C 167.20701 539.34389 173.09683 536.07365 174.58594 533.11328 C 175.04664 532.19744 175.14538 530.88441 175.29492 523.65039 C 175.53469 512.05119 176.88576 497.42354 179.27148 480.61328 C 179.50623 478.95923 179.69633 477.67154 179.86523 476.63477 C 179.74092 476.31258 179.68994 475.92153 179.74609 475.42969 C 179.81789 474.80073 180.13787 474.22495 180.33398 473.62305 C 180.1976 473.86194 180.18101 474.23727 179.92578 474.33984 C 179.75309 474.40924 179.90675 473.96446 179.93945 473.78125 C 180.04694 473.17991 180.13485 472.56818 180.34375 471.99414 C 180.46743 471.65429 180.57193 471.44008 180.67578 471.22266 C 180.67578 471.22266 180.67773 471.2207 180.67773 471.2207 C 180.72745 470.71224 180.9364 469.51932 181.23633 467.87305 C 181.16667 467.39701 181.19936 466.87257 181.53711 466.22461 C 181.57696 466.00754 181.59178 465.92376 181.63477 465.68945 C 183.58945 455.03369 184.4912 451.81447 186.93945 446.74609 C 192.96396 434.2741 195.30078 423.67415 195.30078 408.81836 C 195.30078 395.32541 193.13113 382.28412 188.51172 368.00781 C 185.72983 359.41038 180.49207 346.80078 179.70312 346.80078 C 179.18003 346.80078 177.1458 347.9116 176.71094 348.43555 C 176.37092 348.84526 176.53806 349.38694 177.8457 352.14062 C 181.21522 359.23647 185.16376 370.278 187.30859 378.59961 C 192.40934 398.38971 193.03094 416.70113 189.12695 432.14648 C 188.71038 433.79456 188.17377 435.25232 187.93359 435.38672 C 187.65576 435.54218 187.55976 435.88334 187.66992 436.32227 C 187.9002 437.23976 186.20727 441.74682 183.43359 447.59961 C 180.63363 453.50787 178.97838 459.79853 177.1543 471.46484 C 176.44015 476.03237 176.42217 476.09053 175.88086 475.88281 C 175.48774 475.73194 175.44751 475.82725 175.6543 476.42383 C 176.04168 477.54139 175.92859 479.37528 175.09375 485.40039 C 172.80919 501.88827 170.99697 523.71082 171.39648 529.9375 C 171.60172 533.13643 171.20761 534.25614 169.47266 535.4043 C 167.4971 536.71164 166.92185 536.12924 166.01562 531.91211 C 165.56972 529.83704 165.54318 529.19151 165.84375 527.73633 C 166.44817 524.80995 166.14773 522.1145 165.22461 522.1875 C 164.80917 522.22035 164.76472 521.9458 164.9082 520.23438 C 165.28656 515.72127 164.00165 510.54969 160.80664 503.7168 C 159.83145 501.63123 158.68048 498.85006 158.24805 497.53711 C 154.90384 487.3834 151.46497 465.29727 148.67383 436.05078 C 147.64649 425.28596 146.40452 410.21221 145.93164 403.19922 C 144.76476 402.52319 144.37289 401.82352 145.84766 401.81641 C 145.758 400.34181 145.70875 399.30078 145.75391 399.30078 C 145.77872 399.30078 145.8425 399.35854 145.90039 399.4082 C 145.84692 399.19999 145.78914 398.99225 145.74805 398.78125 C 145.6515 398.28551 145.68634 397.65298 145.72852 397.01172 C 145.40155 395.63879 145.16684 392.68917 144.57227 383.87305 C 144.09289 376.76497 143.43664 368.18328 143.11328 364.80078 C 141.87787 351.8778 141.75491 349.14255 141.75391 334.34961 C 141.75227 319.3161 141.92589 315.59307 143.12891 304.94922 C 146.4946 275.17098 155.99783 247.87073 170.88281 225.21484 C 176.15462 217.1908 184.6828 206.33021 185.13867 207.06055 C 185.54915 207.71817 186.32264 206.96793 186.93945 205.31445 C 187.41588 204.03725 188.37519 202.94257 192.97852 198.41406 C 195.98815 195.45335 200.13672 191.60372 202.19922 189.85938 C 218.41232 176.14692 237.33322 164.99577 259.5 156.08984 C 286.10221 145.40189 318.60276 138.2848 351.75 135.88672 C 357.91038 135.44104 366.69953 135.23555 375.44141 135.26367 z M 577.90625 223.19922 C 577.77512 223.19922 578.46954 224.01 579.44922 225 C 581.28867 226.85886 581.69922 227.10803 581.69922 226.36719 C 581.69922 225.95363 578.40143 223.19922 577.90625 223.19922 z M 592.06836 309 C 591.99561 309 591.85197 309.13578 591.75 309.30078 C 591.64803 309.46578 591.70806 309.59961 591.88281 309.59961 C 592.05753 309.59961 592.19922 309.46578 592.19922 309.30078 C 592.19922 309.13578 592.14116 309 592.06836 309 z M 268.05078 431.57812 C 245.46222 431.67884 224.54386 440.07514 213.12109 453.625 C 208.97421 458.5441 205.68196 464.19425 203.66992 469.85156 C 203.06987 471.53876 202.34313 472.98667 201.83789 473.49805 C 200.89854 474.44884 200.81534 474.76076 201.4082 475.10938 C 201.74594 475.30797 201.69488 475.94502 201.11328 478.80078 C 199.74893 485.49993 199.41354 489.90042 199.5957 498.75 C 199.8232 509.80197 200.92675 517.30167 203.42188 524.76562 C 208.82622 540.93238 219.55477 550.97299 235.57227 554.85352 C 241.29817 556.24072 244.97251 556.61634 252.75 556.60938 C 262.84657 556.60059 271.98946 555.49123 279.68164 553.33984 C 280.06727 553.23199 280.3296 553.16748 280.68164 553.07227 C 281.20837 552.72094 281.75305 552.48155 282.22656 552.29883 C 282.3278 552.22134 282.47016 552.11827 282.53711 552.0625 C 282.68041 552.03715 282.65461 552.04332 282.74414 552.02734 C 282.87688 551.9333 283.01062 551.84202 283.1582 551.77344 C 283.88642 551.43504 284.6383 551.73372 285.30273 552.21289 C 285.31692 552.21103 285.33145 552.21081 285.3457 552.20898 L 286.05078 551.46289 L 292.65039 549.29102 C 308.75937 543.98786 326.56628 536.62852 329.85938 533.91406 C 330.46645 533.41366 331.27767 532.28103 331.70508 531.33594 C 338.65428 515.96892 341.69922 503.64417 341.69922 490.89453 C 341.69922 479.38857 339.12983 470.46355 333.31055 461.76367 C 331.16435 458.55505 326.13567 453.19081 322.67188 450.41602 C 311.85683 441.75235 297.01238 435.61122 279.15039 432.41016 C 274.81276 431.63285 273.74393 431.55267 268.05078 431.57812 z M 282.74414 552.02734 C 282.67579 552.07577 282.60697 552.12324 282.54102 552.17578 C 283.0807 551.98343 283.2237 551.94175 282.74414 552.02734 z M 282.54102 552.17578 C 282.44886 552.20863 282.33337 552.25761 282.22656 552.29883 C 281.98847 552.48106 281.74165 552.66832 281.50195 552.85156 C 281.60202 552.82535 281.7305 552.7898 281.82422 552.76562 C 282.06588 552.57403 282.29973 552.36803 282.54102 552.17578 z M 480.59961 432.79883 C 471.92448 432.78917 469.52468 433.08796 463.85156 434.89258 C 459.76481 436.1926 452.70058 439.65105 448.8457 442.23828 C 437.50045 449.85267 428.3428 461.84436 422.98828 476.09961 C 422.27554 477.99711 421.52846 479.7525 421.32812 480 C 421.12781 480.2475 420.96484 480.78672 420.96484 481.19922 C 420.9652 481.61172 420.61696 483.16539 420.19141 484.65039 C 417.37813 494.46777 415.79433 509.42037 417.10938 513.75 C 420.32159 524.3259 432.39217 534.96386 454.67383 546.85742 C 463.32631 551.47598 473.95596 556.40569 478.19922 557.76562 C 480.26172 558.42665 482.37875 559.14678 482.90234 559.36719 C 483.42593 559.5876 485.38304 559.85392 487.25195 559.95898 C 489.12086 560.06404 490.71828 560.2237 490.80078 560.3125 C 491.08932 560.62306 501.77709 560.1187 504.75 559.6543 C 521.01018 557.11426 536.3476 549.06882 545.32812 538.36914 C 551.10208 531.48987 555.252 523.15352 556.91211 515.0957 C 558.37656 507.98765 558.91219 495.15612 558.04492 487.94922 C 557.31001 481.84224 555.46747 474.59751 553.58398 470.40039 C 553.17673 469.49289 552.83898 468.43514 552.83398 468.05078 C 552.82876 467.66645 552.64845 467.28437 552.43164 467.20117 C 552.21486 467.11798 551.6761 466.35245 551.23633 465.5 C 549.01351 461.19134 544.66146 455.63744 540.59961 451.92773 C 527.02368 439.52873 506.00001 432.82733 480.59961 432.79883 z M 266.9043 435.66211 C 267.89261 435.65084 268.87422 435.65959 269.84961 435.6875 C 284.08114 436.09481 304.00611 442.361 316.05078 450.21875 C 335.95425 463.2035 343.62673 481.53009 338.81836 504.59961 C 336.83446 514.11804 331.51687 528.14573 329.14648 530.11328 C 324.25861 534.17048 288.10402 547.64461 274.46875 550.49023 C 272.91797 550.81387 269.42172 551.36158 266.69922 551.70898 C 261.06107 552.42841 249.00619 552.74349 244.80078 552.28125 C 237.91726 551.52468 230.83845 549.5727 225.83789 547.05078 C 212.26356 540.20481 204.41376 527.57145 201.69531 508.19922 C 200.94796 502.87353 200.94808 488.64774 201.69531 484.34961 C 204.5369 468.00462 212.10243 456.12413 225.15039 447.51758 C 236.01481 440.3513 252.07959 435.83109 266.9043 435.66211 z M 479.45898 436.57031 C 489.69241 436.60957 501.75887 438.21547 510.80273 440.82031 C 538.11605 448.68718 553.27474 466.03281 555.92383 492.44922 C 556.42285 497.42556 556.11524 508.33289 555.33008 513.51758 C 554.98445 515.79992 554.27172 518.85725 553.65039 520.7168 C 547.38141 539.47904 526.71463 553.74076 502.24414 556.18945 C 496.71775 556.74247 490.35265 556.45631 485.27734 555.42773 C 479.72467 554.30237 475.22325 552.47015 462.90039 546.31445 C 445.5516 537.64814 434.25136 530.13001 426.87109 522.3457 C 421.80778 517.00519 419.18513 512.10441 418.86914 507.39648 C 418.47824 501.57258 420.31136 489.96142 423.10547 480.56641 C 428.63423 461.97628 442.55143 446.51767 459.73633 439.88086 C 465.83359 437.52607 468.65217 436.93848 475.19922 436.65234 C 476.57222 436.59234 477.99707 436.5647 479.45898 436.57031 z M 376.82422 499.6875 C 376.63835 499.8561 376.35562 499.97725 375.9375 500.08984 C 372.06069 501.13375 367.33548 503.82468 364.63086 506.5293 C 362.63001 508.53015 360.33941 512.01882 359.15039 514.875 C 358.64705 516.08406 357.68188 519.08254 357.00391 521.53906 C 355.63234 526.50871 355.7587 526.19644 354.41797 527.85352 C 351.71086 531.1993 348.94638 537.5145 346.80273 545.25 C 346.1169 547.725 345.35447 550.41184 345.10742 551.2207 C 344.86037 552.02953 344.61455 553.85281 344.56055 555.27148 C 344.27309 562.81969 341.47807 576.01707 338.2207 585.20703 C 335.63992 592.48815 333.96669 598.18387 333.0918 602.66797 C 332.38473 606.29206 332.29128 607.4889 332.27148 613.34961 C 332.24691 620.61237 332.53575 622.46281 334.48438 627.51562 C 337.29237 634.79702 343.6203 641.22525 351.71289 645.01758 C 356.21739 647.12844 362.57481 648.9011 367.34961 649.37891 L 369.44922 649.58984 L 373.46094 652.69531 C 375.66705 654.4033 377.58758 655.80078 377.72852 655.80078 C 377.86946 655.80078 379.08403 654.80006 380.42773 653.57812 C 381.77143 652.35622 383.55269 650.98521 384.38672 650.53125 C 385.85759 649.73074 386.05328 649.70477 390.87695 649.66797 C 395.48246 649.63278 396.02739 649.56772 398.25 648.79688 C 401.95071 647.51337 404.5063 645.84847 407.72266 642.62695 C 411.08542 639.25885 413.03116 636.42198 415.6543 631.05078 C 418.51591 625.1913 420.44557 618.87027 421.70312 611.25 C 422.11764 608.73843 422.25 606.30225 422.25 601.05078 C 422.25087 592.79067 421.97831 591.3924 419.73438 588.15039 C 415.70407 582.32748 414.49601 577.37943 413.98438 564.59961 C 413.81592 560.39211 413.53388 556.14039 413.35938 555.15039 C 413.18482 554.16039 413.04959 553.07964 413.05859 552.75 C 413.06437 552.52635 412.89175 551.78505 412.66992 550.94531 C 412.57805 550.95663 412.48627 550.96991 412.39453 550.9707 C 412.18844 550.97249 412.03529 550.95858 411.85938 550.95117 C 411.92649 551.18724 412.07676 551.70766 412.10156 551.79688 C 412.24304 552.30604 412.19493 552.31337 411.39258 551.89844 C 409.22523 550.77767 406.54994 547.14871 404.0918 541.99609 C 401.14412 535.81726 400.1752 532.66374 399.88672 528.30078 C 399.60655 524.06367 398.92609 521.4711 397.24609 518.25195 C 394.27171 512.55249 387.34631 505.4056 380.0957 500.55469 C 379.73224 500.31152 379.46539 500.12047 379.21484 499.93359 C 378.41016 499.97896 377.62816 499.9717 376.82422 499.6875 z M 375.94141 503.49414 C 377.08641 503.51369 378.01371 504.23679 380.23633 505.90625 C 389.02936 512.51087 394.95725 519.92694 396.60938 526.38672 C 397.33107 529.20858 397.38459 532.10212 396.73242 533.0332 C 396.23928 533.73724 396.36992 534.30078 397.02734 534.30078 C 397.25198 534.30078 397.63989 535.08413 397.93359 536.13086 C 398.71266 538.90742 400.95473 544.31851 402.61523 547.43164 C 403.86665 549.77785 404.09961 550.46763 404.09961 551.83203 C 404.09961 552.72198 404.18108 553.66478 404.28125 553.92578 C 404.59427 554.74151 405 554.44523 405 553.40039 C 405 551.91842 405.28642 551.87467 406.41016 553.1875 C 406.96747 553.83859 408.08101 554.79756 408.88477 555.31836 C 410.82925 556.57833 410.93789 557.09258 411.29297 566.61719 C 411.66566 576.61403 412.12189 579.9364 413.79883 584.85547 C 414.6868 587.46022 415.57302 589.23697 416.88672 591.04102 C 418.0056 592.57753 418.12002 593.03359 417.44922 593.29102 C 416.898 593.50255 416.84909 594.59961 417.39062 594.59961 C 417.60512 594.59961 417.94747 594.43143 418.15234 594.22656 C 418.67614 593.70276 418.98607 594.29167 419.36914 596.53516 C 420.30607 602.02213 419.99611 609.0925 418.49023 616.58203 C 417.48508 621.58108 415.72511 627.33921 415.02539 627.91992 C 414.30455 628.51818 413.69922 629.87612 413.69922 630.89453 C 413.69922 631.40243 413.20736 632.85874 412.60547 634.13281 C 410.54999 638.48356 404.76127 643.37775 399.57031 645.15234 C 397.22272 645.95484 396.71028 646.01613 392.09961 646.05273 C 388.95618 646.07766 386.82753 646.22727 386.26758 646.46094 C 385.03695 646.97457 381.95322 649.23082 380.7168 650.52148 C 380.14818 651.11503 379.53911 651.59484 379.36523 651.58984 C 379.00199 651.57892 378.30868 651.0851 374.5 648.12305 C 371.93518 646.12835 371.62054 645.96943 369.84961 645.77539 C 364.23787 645.16057 357.64396 643.23601 352.82617 640.80664 C 346.17133 637.45099 341.64746 633.19157 338.39258 627.2207 C 336.86281 624.41453 336.87518 623.86439 338.43359 625.36328 L 339.66602 626.55078 L 339.05469 625.33008 C 338.71839 624.65862 337.95579 623.52446 337.35938 622.81055 C 335.87777 621.03722 335.81202 620.88447 335.22852 617.83398 C 334.61754 614.63958 334.54146 607.36716 335.08203 603.75 C 335.68974 599.68359 336.61254 596.09961 337.05078 596.09961 C 337.59471 596.09961 337.77169 595.45855 337.39648 594.85156 C 337.02052 594.24334 337.46618 592.66535 340.13477 585.16016 C 343.00415 577.09028 345.34511 567.78052 346.08398 561.49414 C 346.19462 560.55265 346.40122 559.71065 346.54297 559.62305 C 346.68469 559.53545 346.80273 558.83064 346.80273 558.05664 C 346.80789 555.26151 347.6956 549.19317 348.58789 545.84961 C 349.94422 540.7674 350.9897 537.59961 351.3125 537.59961 C 351.47033 537.59961 351.59961 537.25338 351.59961 536.83008 C 351.59961 535.62261 353.56581 531.67452 355.08594 529.82812 C 357.12684 527.34925 358.09476 525.17364 359.41602 520.10352 C 360.06876 517.59867 361.08914 514.55587 361.68359 513.3418 C 363.56135 509.50666 367.08161 506.57342 372.16016 504.61133 C 374.02786 503.88973 375.05085 503.47894 375.94141 503.49414 z M 281.5625 555.40234 C 281.55439 555.41982 281.55273 555.42822 281.54492 555.44531 C 281.54407 555.45411 281.54382 555.45992 281.54297 555.46875 C 281.55519 555.46987 281.56777 555.46955 281.58008 555.4707 C 281.57421 555.44793 281.56836 555.42512 281.5625 555.40234 z M 277.49023 582.52539 C 277.26117 582.67132 277.02958 582.81376 276.79883 582.95703 C 276.94961 582.91706 276.97195 582.91064 277.12891 582.86914 C 277.24898 582.75464 277.36822 582.63776 277.49023 582.52539 z M 570.25391 604.95703 C 570.62729 605.31952 567.25703 622.86933 564.4082 635.40039 C 560.81378 651.2112 557.92153 662.31459 555.30469 670.34961 C 551.19034 682.9827 548.68158 697.84644 547.47852 716.69922 C 547.29426 719.58672 547.15598 728.36172 547.17188 736.19922 C 547.20267 751.5072 547.10885 752.87487 545.6582 758.40039 C 542.60933 770.01357 535.34141 780.91489 525.20312 789.08008 C 521.97971 791.67619 488.75361 818.03015 480.44922 824.57812 C 448.82388 849.51454 427.56272 865.00978 419.42969 869.04883 L 416.60938 870.44922 L 400.37891 870.63867 C 385.36311 870.8141 380.40686 871.00259 369.15039 871.82031 C 364.69344 872.14395 348.97265 872.42762 346.95117 872.2207 C 340.72596 871.5835 335.13156 869.99494 330.24219 867.47656 C 317.15994 860.73826 283.51135 837.17123 256.35938 815.73047 C 242.03912 804.42239 238.56671 801.25797 231.33203 792.92188 C 220.55778 780.50729 216.51329 774.82568 214.33594 769.04102 C 213.02946 765.57002 212.93744 764.18715 213.62305 758.39844 C 214.42978 751.58706 214.71626 737.61276 214.23242 728.69922 C 213.11449 708.10368 210.0745 687.94788 205.90625 673.5 C 205.1684 670.9425 202.96059 664.85404 201 659.9707 C 193.85524 642.17476 191.94906 635.33763 191.39258 625.5 C 191.21992 622.4475 190.95535 618.67334 190.80273 617.11328 C 190.65009 615.55319 190.56222 614.24051 190.60742 614.19531 C 190.6526 614.15013 191.55885 614.76109 192.62109 615.55273 C 198.23262 619.73467 205.25759 622.80153 212.70117 624.32031 C 214.77523 624.74349 217.69643 625.03707 221.25195 625.17969 L 226.65234 625.39648 L 229.35156 626.63672 L 232.05078 627.87695 L 231.94922 631.11328 C 231.50999 645.08425 236.81918 663.85737 246.90625 684 C 249.60039 689.37987 254.24672 697.78376 255.88867 700.24805 C 257.0182 701.94332 257.02097 701.9534 257.18164 705.79883 C 257.42614 711.6506 258.46283 714.12687 261.67773 716.5332 C 262.57196 717.20253 263.99253 718.57836 264.83398 719.58984 C 266.70772 721.84218 268.32311 722.69922 270.68555 722.69922 L 272.37891 722.69922 L 272.70703 723.97461 C 273.28472 726.21945 273.96831 728.21771 274.56445 729.4043 C 275.48086 731.22836 277.4003 733.11234 278.94922 733.70508 C 280.45071 734.27967 283.46143 734.41289 286.07031 734.02148 L 287.58984 733.79492 L 288.13281 735.52148 C 288.94273 738.10418 289.99662 740.01361 291.50391 741.625 C 293.30595 743.55154 294.93284 744.09467 298.48828 743.95508 L 301.14453 743.84961 L 301.48633 745.98047 C 302.19628 750.3839 304.45353 753.46884 307.49805 754.19922 C 309.28536 754.62798 312.56313 754.4408 315.45117 753.74414 C 318.37419 753.03902 318.71105 753.11241 319.9043 754.72461 C 321.46475 756.83292 324.26508 759.45674 325.80078 760.24805 C 327.42495 761.08493 330.86094 761.35702 332.58789 760.78711 L 333.72461 760.41211 L 334.77344 761.73242 C 335.34953 762.4577 336.86382 764.09709 338.13867 765.37695 C 341.16153 768.41166 343.33725 769.50314 346.35156 769.49414 C 348.93447 769.48634 350.36454 768.87589 352.16211 767.01367 L 353.47266 765.65625 L 355.59375 767.4375 C 358.56711 769.93407 360.96233 771.05551 363.68555 771.22852 C 366.40667 771.40141 367.87214 771.00833 370.13672 769.49609 C 371.1218 768.83828 371.99036 768.30078 372.06836 768.30078 C 372.14636 768.30078 373.28182 769.35573 374.5918 770.64648 C 377.8165 773.82387 379.7082 774.75209 382.95117 774.74609 C 386.38788 774.73967 387.6327 774.0888 391.04883 770.51367 L 393.79688 767.63672 L 395.27344 768.38477 C 398.85859 770.20028 403.48433 770.65852 406.57031 769.50391 C 408.30446 768.8551 410.49057 766.83301 412.18359 764.31055 L 413.15039 762.87109 L 414.40039 763.59375 C 417.067 765.13536 419.0859 765.69386 422.10156 765.72266 C 424.64526 765.74696 425.13462 765.66028 426.6582 764.91211 C 428.94204 763.79056 430.98895 761.48576 432.75391 758.04688 C 435.07684 753.5208 434.8457 753.72008 437.99414 753.48242 C 443.15057 753.09314 445.92976 751.7885 449.06641 748.28516 L 450.94727 746.18555 L 453.27539 746.00586 C 457.42349 745.686 459.95728 744.4433 461.12305 742.1582 C 461.46154 741.49472 461.93034 739.85619 462.16602 738.51562 C 462.4017 737.17512 462.76461 735.91061 462.97266 735.70508 C 463.18074 735.49955 464.74136 735.12369 466.43945 734.87109 C 470.07083 734.33088 473.3059 733.27339 474.79102 732.14062 C 476.46469 730.86407 476.997 729.74091 477 727.5 L 477 725.55078 L 479.92578 725.54688 C 482.34396 725.54372 483.0612 725.42958 484.07031 724.89258 C 485.66325 724.04496 487.39257 722.10597 488.26953 720.18555 C 488.98479 718.61922 489.90039 715.473 489.90039 714.57812 C 489.90039 714.20105 490.29248 714.03564 491.54297 713.88867 C 493.74269 713.63013 496.4647 712.58218 497.42383 711.62305 C 498.56011 710.48677 499.48166 707.731 500.05469 703.76562 L 500.55859 700.2832 L 502.24609 698.45898 C 505.70464 694.72338 508.53974 689.11006 511.5332 680.06641 C 515.21273 668.94994 518.40287 654.3129 520.94336 636.88281 C 521.73635 631.44216 522.13542 629.45688 522.49023 629.19141 C 523.2348 628.63431 528.93015 627.38808 537.30078 625.94922 C 547.21956 624.24423 552.79437 622.3425 561.20508 617.79492 L 563.68164 616.45508 L 566.91602 610.65625 C 568.69466 607.4665 570.19681 604.90163 570.25391 604.95703 z M 235.625 630 C 236.30156 630 242.89474 634.48007 245.84961 636.94727 C 252.78743 642.74015 256.72677 648.43938 257.71484 654.11328 C 258.14633 656.59107 257.94364 658.61312 256.95117 661.7207 C 256.54189 663.00221 256.20515 664.35784 256.20312 664.73438 C 256.19795 665.65778 256.99077 667.49544 257.73633 668.28906 L 258.34375 668.93555 L 257.70508 670.99219 C 255.31704 678.68353 255.37195 684.94198 257.86914 689.89258 C 258.90269 691.94158 258.92988 692.0735 258.49219 692.91992 C 258.24047 693.40667 257.92407 694.78979 257.79102 695.99414 L 257.55078 698.18359 L 255.36328 694.31641 C 242.48364 671.54464 235.19922 649.77094 235.19922 634.03516 C 235.19922 630.75598 235.27988 630 235.625 630 z M 518.48242 630.55859 L 518.26562 632.75391 C 518.14706 633.96177 517.5896 637.84503 517.02539 641.38281 C 513.14774 665.69676 508.03331 684.02213 502.54883 693.25391 C 501.14246 695.62115 500.40278 696.39471 500.39258 695.51172 C 500.38901 695.20278 500.20005 693.53328 499.9707 691.80078 C 499.74135 690.06828 499.57486 688.63775 499.60156 688.62305 C 499.62823 688.6085 500.28866 688.29523 501.06836 687.92578 C 502.29596 687.34411 502.61666 686.98663 503.4668 685.25977 L 504.44922 683.26562 L 504.55469 677.85742 C 504.62804 674.12923 504.50781 671.11211 504.16602 668.14062 C 503.89342 665.77015 503.74047 663.75953 503.82617 663.67383 C 503.91188 663.58812 504.62313 663.09776 505.40625 662.58398 C 508.87176 660.31034 509.39327 657.387 508.02734 647.9082 C 507.4235 643.71771 507.66059 641.53312 509.03516 638.5957 C 510.40304 635.67262 513.96677 632.44396 517.41797 631.00195 L 518.48242 630.55859 z M 501.14648 662.55078 L 501.54883 665.25 C 501.77635 666.77775 501.9721 670.87986 502 674.69922 C 502.05703 682.47171 501.84026 683.70712 500.0957 685.54102 C 498.99977 686.69285 498.977 686.70117 496.66406 686.70117 C 494.55641 686.70117 494.35849 686.65098 494.57227 686.17578 C 494.70217 685.88703 494.86354 684.41579 494.93164 682.90625 C 495.0817 679.57994 494.36409 676.44341 492.57812 672.63086 L 491.39648 670.11133 L 492.86719 668.55859 C 493.67566 667.70377 494.7584 666.25629 495.27344 665.34375 C 496.66493 662.87814 497.13232 662.55573 499.30273 662.55273 L 501.14648 662.55078 z M 262.44531 668.10547 C 263.78519 668.09887 266.12416 669.15658 266.79492 670.07227 C 267.81787 671.46877 267.77248 672.6411 266.61328 674.74023 C 264.26766 678.98784 263.18851 683.77141 263.48242 688.62109 C 263.65352 691.44412 264.16899 694.07196 264.67969 694.72461 C 264.87844 694.97856 264.85905 695.09961 264.61914 695.09961 C 264.4243 695.09961 263.73029 694.51174 263.07617 693.79297 C 259.50149 689.8651 258.43686 687.14805 258.47656 682.05078 C 258.50469 678.44145 258.95917 675.96682 260.4707 671.19922 L 261.44922 668.10938 L 262.44531 668.10547 z M 487.44922 669.375 C 487.5011 669.36563 487.54353 669.36757 487.57812 669.38086 C 488.22019 669.62725 490.90555 675.04068 491.85352 678 C 492.9556 681.4404 493.05576 685.31217 492.09375 687.30078 C 491.73456 688.04328 491.168 689.59702 490.83398 690.75391 C 490.1483 693.12877 488.90256 694.61191 487.18164 695.10547 C 486.61593 695.26771 485.6307 695.40039 484.99023 695.40039 C 483.83475 695.40039 483.82565 695.39322 484.02734 694.42578 C 485.01635 689.68149 484.19591 683.91677 481.58984 677.30078 C 481.016 675.84398 480.59274 674.62018 480.64844 674.58008 C 480.70415 674.54 481.35711 674.15938 482.09961 673.73438 C 482.84211 673.30939 484.28032 672.11881 485.29492 671.08789 C 486.31245 670.05396 487.08606 669.44058 487.44922 669.375 z M 270.22266 673.94922 L 271.51172 673.98047 C 273.05242 674.0159 274.11169 675.01036 274.95508 677.21875 L 275.48828 678.61914 L 274.27344 681.08398 C 271.80448 686.09401 270.82468 691.29052 271.45508 696.02539 C 271.88561 699.25906 273.01997 702.53178 273.96094 703.25586 C 274.60715 703.75324 274.61319 703.78421 274.05078 703.75781 C 272.31805 703.67657 270.37363 702.94582 269.23633 701.94727 C 267.30667 700.25302 266.55973 698.48067 266.28711 694.94922 C 266.22343 694.12422 266.01358 692.31358 265.82031 690.92383 C 265.15499 686.13985 266.24122 680.86439 268.81055 676.40234 L 270.22266 673.94922 z M 476.47461 674.69922 C 477.59895 674.69922 477.64367 674.74315 478.49414 676.63867 C 480.80021 681.77848 482.23164 687.88532 482.04492 691.79102 C 481.93458 694.09898 481.80822 694.57675 480.97266 695.87695 C 478.89009 699.11758 478.57288 699.3868 476.07031 700.01953 C 475.17886 700.24489 473.80914 700.49622 473.02539 700.57812 L 471.59961 700.72656 L 471.59961 699.33008 C 471.59961 695.0213 470.27327 689.20406 467.93555 683.26562 L 466.40625 679.38086 L 467.61328 678.31055 C 469.95145 676.2356 473.71902 674.69922 476.47461 674.69922 z M 279.72461 679.80078 C 282.22131 679.80078 284.44366 680.89351 285.87109 682.82422 L 286.54883 683.74219 L 285.06641 686.04492 C 282.07318 690.69711 280.63009 693.80405 279.55859 697.9043 C 278.84492 700.63526 278.6733 706.02846 279.25391 707.47461 C 279.43606 707.92836 279.48686 708.28482 279.36719 708.26562 C 278.44036 708.11736 278.09961 707.87463 278.09961 707.36328 C 278.09961 706.34175 277.26584 705.09916 276.31445 704.70508 C 275.67752 704.44126 275.40039 704.12205 275.40039 703.65039 C 275.40039 703.27806 275.19514 702.48465 274.94531 701.88672 C 272.56444 696.18849 273.5717 686.92057 277.19141 681.21289 C 278.07984 679.81186 278.10054 679.80078 279.72461 679.80078 z M 460.96875 680.40039 C 462.51861 680.40039 464.524 681.96388 465.30664 683.78125 C 467.55322 688.99819 469.19922 695.72194 469.19922 699.67969 C 469.19922 701.04088 469.07652 701.41054 468.41016 702.02344 C 467.97525 702.42346 467.15983 703.4598 466.59961 704.32617 C 465.13063 706.59786 463.86071 707.9589 462.62891 708.58008 C 461.16011 709.32073 460.47803 709.4682 459.62891 709.23438 C 458.93744 709.04395 458.9101 708.93731 458.9668 706.64258 C 459.03949 703.69883 457.97459 697.29503 456.33008 690.7793 C 455.00339 685.52288 454.9824 685.85194 456.82617 683.3125 C 458.11014 681.544 459.73719 680.40039 460.96875 680.40039 z M 429.70703 682.55664 C 432.07427 682.52686 434.91367 684.5769 437.70508 688.35547 C 439.01548 690.12928 439.03054 690.1803 439.5625 694.34766 C 440.40298 700.93188 441.24877 709.30797 441.47461 713.28711 C 441.67015 716.73267 441.64251 716.99908 440.96484 718.37305 C 440.08449 720.15784 437.34541 722.99523 435.81055 723.71094 C 435.18337 724.00338 434.2368 724.28634 433.70898 724.33984 C 432.37896 724.47481 429.66506 724.10771 428.35742 723.61523 C 427.28768 723.21236 427.25936 723.15892 426.91211 720.92773 C 426.038 715.31119 423.90459 708.44858 420.71094 700.98047 C 419.65965 698.52215 418.80078 696.22095 418.80078 695.86719 C 418.80078 694.79961 422.25228 688.17452 423.80664 686.25977 C 425.48208 684.19583 427.51796 682.82084 429.24023 682.58984 C 429.39371 682.56926 429.54922 682.55863 429.70703 682.55664 z M 292.57617 684.06445 C 293.28424 684.06478 293.96415 684.1394 294.45312 684.30078 C 295.81937 684.75168 298.19922 687.03765 298.19922 687.89844 C 298.19922 688.23606 297.60956 689.69041 296.88672 691.13086 C 295.1511 694.58959 292.40907 701.54919 291.59961 704.55078 C 291.24364 705.87078 290.87821 708.11475 290.78711 709.53906 L 290.62109 712.12891 L 289.26758 712.31445 C 288.52383 712.41643 287.63142 712.49333 287.2832 712.48633 C 286.13296 712.4617 281.93334 709.84734 281.52344 708.90039 C 281.4163 708.65289 281.25988 707.15094 281.17578 705.5625 C 280.95308 701.35899 282.01309 697.15053 284.58789 692.00781 C 285.76387 689.65899 288.8528 685.07505 289.55469 684.63672 C 290.13841 684.27218 291.39605 684.06391 292.57617 684.06445 z M 446.62305 684.97266 C 446.80994 684.97593 447.00691 685.00014 447.23047 685.04102 C 448.52197 685.27718 450.2531 686.25997 451.90625 687.69727 C 452.96327 688.61632 453.13598 688.993 453.93164 692.125 C 455.80232 699.48862 457.03463 707.86358 456.36719 708.66797 C 456.19289 708.87809 455.70621 709.96525 455.28516 711.08398 C 454.21971 713.91481 452.58635 716.2663 451.06445 717.1582 C 449.53793 718.0528 447.74913 718.10821 445.80078 717.32227 L 444.44922 716.77734 L 444.21875 714.11328 C 442.99352 700.02696 442.07245 691.81897 441.58789 690.66016 C 441.08266 689.45188 442.78501 686.79071 444.83203 685.58789 C 445.60023 685.13651 446.06236 684.96283 446.62305 684.97266 z M 306.33984 687.74414 C 309.38956 687.6688 311.93337 689.51465 313.70117 693.11914 L 314.51367 694.77734 L 313.10742 697.71484 C 312.33423 699.32965 311.2237 702.06133 310.63867 703.78516 C 309.54841 706.99765 307.80773 714.88038 307.80273 716.625 C 307.80126 717.17727 307.64556 717.59961 307.44336 717.59961 C 307.24704 717.59961 306.15753 718.16047 305.02344 718.8457 C 302.71872 720.23821 300.77352 720.59405 299.25 719.90039 C 298.35868 719.49458 295.44435 716.56606 293.84766 714.47266 C 293.04714 713.42314 293.02342 713.29616 293.17969 710.61914 C 293.4263 706.39472 295.29295 700.73369 299.00977 692.9375 C 300.55037 689.70605 300.78417 689.37921 301.93164 688.83984 C 302.6175 688.51746 303.99851 688.09196 305.00195 687.89453 C 305.45752 687.8049 305.90417 687.7549 306.33984 687.74414 z M 328.40625 688.31836 C 329.04201 688.35846 329.57716 688.56705 330 688.94922 C 331.78857 690.56577 332.54254 693.84166 332.33398 699.08203 C 332.19754 702.51109 332.08897 703.044 330.66406 707.25 C 328.90894 712.43064 328.19922 716.18909 328.19922 720.3125 L 328.19922 723.21875 L 326.38281 724.0332 C 324.59988 724.83338 320.89047 725.33443 319.80078 724.92188 C 317.42718 724.02319 315.02119 722.53267 312.67969 720.51172 C 310.50094 718.63126 309.93664 717.98598 310.03906 717.48633 C 310.1107 717.13683 310.31883 715.905 310.50195 714.75 C 311.36745 709.29024 313.2536 703.36719 315.70312 698.41602 C 317.52016 694.74339 317.59437 694.64517 320.30664 692.39844 C 323.68792 689.5975 326.49898 688.19805 328.40625 688.31836 z M 495.58789 688.5 C 496.96801 688.5 496.9208 688.40033 497.39648 692.39258 C 497.80615 695.83088 497.78186 698.79821 497.33984 699.24023 C 497.05985 699.52022 497.05985 699.68095 497.33984 699.96094 C 497.8225 700.44355 497.79417 702.05866 497.25195 704.89258 C 496.32564 709.73386 495.47456 711.14254 492.93359 712.03906 C 490.57575 712.87096 490.65442 712.9914 490.60938 708.52539 C 490.58733 706.3392 490.33903 702.79807 490.05664 700.65625 L 489.54297 696.76172 L 490.24609 696.30664 C 491.7214 695.35096 492.63098 694.02306 493.23242 691.94922 C 494.23409 688.49522 494.23135 688.5 495.58789 688.5 z M 260.69141 693.90039 C 261.24626 693.90039 264.06237 697.29006 264.67773 698.69922 C 265.38902 700.32807 265.392 700.39041 264.98438 703.5 C 264.73435 705.40725 264.60616 708.57348 264.66016 711.52539 C 264.70906 714.20679 264.71136 716.40054 264.66406 716.40039 C 264.61674 716.40021 263.78527 715.62453 262.81641 714.67578 C 261.43087 713.319 260.94915 712.59858 260.5625 711.30078 C 259.44246 707.54133 259.08132 696.89794 260.00781 694.95508 C 260.28431 694.37527 260.59261 693.90039 260.69141 693.90039 z M 390.75 694.21289 C 392.9877 694.21289 395.62812 696.19704 398.02344 699.67773 C 400.28583 702.96522 400.42485 703.3485 401.68164 709.72461 C 403.12416 717.04317 403.87122 722.57481 403.91602 726.28125 L 403.94922 729.11133 L 402.15039 730.39453 C 399.64704 732.17662 396.38441 733.72626 393.6875 734.41602 C 388.60451 735.71601 384.12401 734.91658 379.3418 731.85742 L 377.60547 730.74805 L 377.8125 724.24805 C 377.92575 720.67382 378.19111 715.63627 378.40234 713.05273 L 378.78516 708.35547 L 380.36133 705.11719 C 383.81814 698.00725 387.43197 694.21289 390.75 694.21289 z M 344.95312 694.50586 C 347.35289 694.48339 349.51359 698.02018 350.58984 703.73438 L 351.11719 706.53906 L 350 710.94336 C 348.13145 718.31739 347.65447 721.10158 347.48242 725.5957 L 347.31836 729.83984 L 344.88477 730.31055 C 341.77593 730.91202 340.12311 731.03004 338.25 730.7793 C 335.56749 730.42023 333.21716 728.97443 331.58984 726.68555 C 330.60508 725.30042 330.59961 725.27601 330.59961 721.76172 C 330.59961 716.48481 331.32504 713.13855 334.19922 705.15039 C 335.772 700.77915 342.08205 694.53286 344.95312 694.50586 z M 366.13086 695.10352 C 369.65799 695.09476 372.84131 698.90166 375.16016 705.90039 L 376.00586 708.44922 L 375.63867 714.44922 C 375.43674 717.74922 375.192 722.74578 375.0957 725.55078 C 374.8983 731.3022 374.98404 731.07981 372.30078 732.88086 C 370.32183 734.20917 368.21443 735.1153 366.06055 735.56641 C 365.18617 735.74956 363.90406 735.89015 363.21094 735.87695 C 360.29686 735.82181 355.61013 734.22985 354.52734 732.92773 C 354.24021 732.58243 353.76025 732.30078 353.46094 732.30078 C 353.16163 732.30078 352.29235 731.90382 351.5293 731.41992 C 350.29147 730.63491 350.121 730.39032 349.93359 729.14062 C 349.43214 725.79678 351.10185 716.0493 353.53125 708.15039 C 353.78496 707.32539 353.99309 706.36588 353.99609 706.01953 C 354.00077 705.11101 357.19671 700.95157 359.7168 698.57422 C 362.11488 696.31198 364.34265 695.10852 366.13086 695.10352 z M 409.7793 695.46484 C 411.09497 695.44028 412.55634 695.84243 414.23047 696.66211 C 416.58427 697.81456 416.73497 698.05386 419.67383 705.44922 C 422.62202 712.8681 425.00846 721.59731 424.34375 722.52539 C 424.18205 722.75117 423.3977 723.88242 422.60156 725.04102 C 420.84107 727.60299 417.90383 730.4801 416.11523 731.39258 C 415.388 731.76356 414.04053 732.13088 413.12109 732.20898 C 411.6795 732.3315 411.20262 732.22276 409.65039 731.42188 C 406.48482 729.78854 406.61773 730.05415 406.41211 724.93945 C 406.31287 722.47048 405.95243 718.69578 405.61328 716.55078 C 404.80925 711.46569 403.21077 703.4897 402.86523 702.83984 C 402.47157 702.09944 403.77411 699.33951 405.29688 697.6875 C 406.63803 696.2325 408.08772 695.49643 409.7793 695.46484 z M 485.88281 696.89648 C 487.07211 696.89624 487.01805 697.26239 487.64453 702.90039 C 488.21234 708.01149 488.22003 711.27473 487.66797 713.22266 C 487.43004 714.06215 487.00547 715.67862 486.72461 716.8125 C 485.89085 720.17859 484.25453 722.77705 482.33984 723.77734 C 481.87832 724.01845 480.66809 724.19922 479.52734 724.19922 L 477.52539 724.19922 L 477.73047 723.22461 C 478.70997 718.57239 478.97159 713.60187 478.53125 708 C 478.34321 705.6075 478.11208 703.22552 478.01758 702.70703 C 477.85828 701.83286 477.92634 701.73795 478.94922 701.40039 C 480.29781 700.95531 481.96644 699.53279 482.60742 698.28125 C 483.24459 697.03712 483.49036 696.9093 485.29102 696.9043 C 485.5173 696.90362 485.71291 696.89652 485.88281 696.89648 z M 474.76953 702.25195 C 475.06451 702.27185 475.26596 702.34042 475.31445 702.4668 C 475.39305 702.67167 475.62057 704.7564 475.82031 707.09961 C 476.43477 714.30741 475.82793 722.86917 474.59766 724.35156 C 474.32957 724.67466 474.27167 725.35402 474.4043 726.62305 C 474.66011 729.07051 474.15045 730.2277 472.29297 731.40625 C 471.49983 731.9095 470.04078 732.56923 469.05078 732.87109 C 466.70946 733.58532 464.99761 733.88756 465.00781 733.58789 C 465.01228 733.45667 465.14478 732.0675 465.30078 730.5 C 465.63516 727.13973 465.24844 720.10207 464.42578 714.56836 L 463.87305 710.84961 L 464.51172 710.40039 C 465.92607 709.40505 467.47155 707.74316 468.82422 705.76367 C 469.60839 704.61611 470.67922 703.42725 471.20312 703.12305 C 472.1596 702.56778 473.88459 702.19226 474.76953 702.25195 z M 267.70312 702.99609 C 267.73791 702.96129 268.69121 703.39854 269.82031 703.9668 C 270.9494 704.53509 272.16033 705.00195 272.51172 705.00195 C 272.8631 705.00285 273.67229 705.14896 274.31055 705.32617 L 275.4707 705.64844 L 275.26953 707.16602 C 275.15877 708.00095 274.7414 710.04862 274.3418 711.7168 C 273.6734 714.5071 272.93209 719.62198 273.08594 720.37891 C 273.12166 720.55468 272.745 720.8026 272.25 720.92773 C 271.755 721.05286 271.07189 721.2417 270.73242 721.34766 C 269.99568 721.57761 268.73365 720.6661 268.61719 719.82031 C 268.57403 719.5069 268.27 718.50711 267.94141 717.59961 C 267.10312 715.28448 266.87221 711.5251 267.28711 706.95508 C 267.48161 704.81284 267.66832 703.03089 267.70312 702.99609 z M 278.16016 709.38477 C 278.94907 709.46559 280.44773 710.15985 281.8418 711.15234 C 282.83627 711.86037 284.29511 712.75284 285.08398 713.13477 L 286.51953 713.82812 L 286.28516 716.83984 C 285.90589 721.71325 286.06493 728.93514 286.58789 730.57617 C 286.83736 731.36013 286.95336 732.05424 286.8457 732.11914 C 286.73804 732.18406 285.91768 732.45388 285.02148 732.71875 C 282.87763 733.35238 282.10629 733.32577 280.57617 732.56836 C 278.99226 731.78434 277.94853 730.57185 276.86133 728.25 C 275.72697 725.82741 274.84857 722.4433 275.28125 722.16211 C 275.46133 722.04511 275.6954 720.66711 275.80078 719.09961 C 275.96965 716.5875 277.18504 710.25351 277.63867 709.51953 C 277.71362 709.39826 277.89719 709.35782 278.16016 709.38477 z M 458.46289 710.62891 L 459.66797 710.79102 C 460.33091 710.87994 460.98782 711.06789 461.12891 711.20898 C 461.99024 712.07031 463.18779 728.003 462.69141 731.99609 C 462.47757 733.71626 462.35321 733.98824 461.61914 734.33984 C 460.43501 734.90702 459.97948 735.76293 459.60547 738.11328 C 459.42493 739.24788 459.09923 740.59921 458.88281 741.11719 C 458.35196 742.38769 456.5602 743.91093 455.17969 744.26367 C 453.39079 744.7208 451.5 744.9717 451.5 744.75195 C 451.5 744.64119 451.76365 743.51501 452.08594 742.25 C 453.49372 736.7243 453.59597 730.45151 452.39453 723.42383 C 452.06705 721.50833 451.80078 719.82447 451.80078 719.68359 C 451.80078 719.54274 452.27867 719.20124 452.86328 718.92383 C 454.33901 718.22354 455.77841 716.35616 457.22852 713.26172 L 458.46289 710.62891 z M 290.77344 714.17773 C 291.34799 714.23799 291.85071 714.82303 294.17969 717.4707 C 295.31621 718.76274 296.70466 719.94711 297.84961 720.59961 L 299.69336 721.65039 L 299.50977 727.94922 C 299.34361 733.66287 299.63032 739.43369 300.18359 741.50195 C 300.33218 742.0574 300.1871 742.20389 299.20508 742.47656 L 299.20312 742.47656 C 297.61929 742.91636 296.7082 742.87911 295.65039 742.33008 C 293.275 741.0972 292.09176 739.20844 290.16992 733.58008 L 288.75977 729.44922 L 288.76172 723.30078 C 288.76273 719.91828 288.86866 716.52392 288.99609 715.75781 C 289.2072 714.4886 289.31012 714.35274 290.16992 714.22656 C 290.3 714.20747 290.41408 714.1892 290.51758 714.17969 C 290.60814 714.17137 290.69136 714.16913 290.77344 714.17773 z M 444.41016 718.50781 C 444.59703 718.51216 445.69461 718.76329 446.84961 719.06641 L 448.94922 719.61719 L 449.66406 722.88477 C 450.28689 725.73186 450.38306 726.99651 450.41406 732.75 C 450.44637 738.75882 450.38575 739.60115 449.74219 742.1543 C 449.09281 744.73058 448.88902 745.12829 447.23438 747.05078 C 444.95333 749.7011 443.4964 750.75274 441.06445 751.50391 C 439.99963 751.8328 438.21802 752.18743 437.10352 752.29102 L 435.07617 752.47852 L 435.23047 747.67578 C 435.4033 742.25952 435.01734 737.25289 433.93164 730.82227 C 433.5297 728.44165 433.19922 726.46745 433.19922 726.43555 C 433.19922 726.40369 433.90914 726.2826 434.77539 726.16797 C 438.02559 725.73789 440.50822 723.96631 442.80859 720.43555 C 443.50222 719.37094 444.22329 718.50381 444.41016 718.50781 z M 308.42578 719.61719 C 308.50109 719.60764 308.57946 719.60935 308.66406 719.62305 C 309.22807 719.71434 310.05957 720.35271 312.00195 721.92578 C 313.24101 722.92925 314.57237 723.95557 314.95898 724.20703 C 315.65597 724.66039 315.65859 724.68427 315.28125 727.05664 C 314.71464 730.61881 314.78264 738.74928 315.4082 742.19727 C 315.84362 744.59715 317.2665 749.346 318.12891 751.27539 C 318.31005 751.68066 318.22514 751.80078 317.75195 751.80078 C 317.41481 751.80078 315.74667 752.13654 314.04492 752.54883 C 310.36212 753.44106 309.82665 753.4585 308.21484 752.72656 C 306.03426 751.73632 304.78281 749.50191 304.04883 745.29297 C 303.80967 743.92152 303.41572 742.49616 303.17383 742.125 C 302.2494 740.70642 301.75387 730.77452 302.29102 724.41992 L 302.48438 722.15039 L 303.55273 721.95117 C 304.73539 721.72932 306.6677 720.81612 307.75781 719.96484 C 308.00275 719.77357 308.19985 719.64584 308.42578 719.61719 z M 426.26172 724.5 C 427.06161 724.5 429.98177 725.5954 430.17773 725.96875 C 430.31687 726.23383 430.77867 728.40828 431.20312 730.80078 C 432.66656 739.04922 433.11731 745.3053 432.61328 750.35938 C 432.27206 753.78111 432.22107 753.94498 430.55664 757.03711 C 428.52987 760.80244 426.79969 762.90391 425.01562 763.76758 C 423.38891 764.55506 421.01166 764.58231 418.94922 763.83594 C 417.32364 763.24767 414.30078 761.48548 414.30078 761.12695 C 414.30078 761.00518 414.64033 759.76727 415.05664 758.37695 C 416.85496 752.37113 417.67387 743.86555 417.02539 737.91406 C 416.83144 736.13386 416.60206 734.49279 416.51562 734.26758 C 416.41269 733.99935 416.98174 733.52573 418.16602 732.89453 C 420.32071 731.74607 423.1046 729.04515 424.84961 726.41016 C 425.54513 725.35989 426.18022 724.5 426.26172 724.5 z M 328.54883 725.63477 L 329.04297 726.34375 C 329.31513 726.7327 329.97523 727.53496 330.50977 728.12695 L 331.48242 729.20312 L 331.61719 738.32617 C 331.75348 747.54751 332.22447 753.19504 333.15039 756.7168 C 333.40602 757.68904 333.5785 758.50244 333.5332 758.52344 C 333.48793 758.5445 332.80577 758.86252 332.01758 759.23047 C 331.22942 759.59845 330.21692 759.89948 329.76758 759.89648 C 327.27233 759.88544 322.40157 755.20961 320.56836 751.06445 C 318.17097 745.64351 317.23252 740.08848 317.52148 733.05078 C 317.62987 730.41078 317.79703 727.73186 317.89453 727.09766 C 318.05839 726.03197 318.13221 725.95749 318.86133 726.13281 C 319.29522 726.23715 320.94758 726.403 322.5332 726.5 C 324.82118 726.64004 325.73937 726.56911 326.98242 726.15625 L 328.54883 725.63477 z M 405.63672 731.01758 L 408.30469 732.28516 C 409.77166 732.9823 411.51633 733.62564 412.18164 733.71484 C 412.84695 733.80409 413.51951 734.03242 413.67578 734.2207 C 414.81678 735.59548 414.8491 748.72204 413.72461 753.94141 C 412.81894 758.14513 411.9345 760.84509 411.18555 761.69922 C 410.82387 762.11172 410.00456 763.23336 409.36523 764.19141 C 407.90168 766.38456 405.97884 768.09091 404.45703 768.54688 C 402.24288 769.21024 399.78086 768.73562 396.34961 766.98242 C 395.11601 766.35212 394.79321 766.04721 394.94336 765.65625 C 396.61511 761.30397 398.12353 750.55174 398.5957 739.60156 L 398.79688 734.92969 L 399.86328 734.48242 C 400.45041 734.23708 401.99096 733.3575 403.28516 732.52734 L 405.63672 731.01758 z M 334.38086 731.09961 C 334.52849 731.0997 335.39328 731.38403 336.30078 731.73047 C 338.69442 732.64424 342.90111 732.78957 346.27344 732.07422 L 348.89844 731.51758 L 350.39844 732.38281 C 352.16799 733.40446 352.03958 732.1588 351.57617 743.74219 C 351.2756 751.25533 351.52074 760.73709 352.06641 762.75 C 352.24122 763.39488 350.01153 766.41406 348.59961 767.44531 C 345.94053 769.38751 342.02394 767.27353 337.61523 761.51758 C 336.5178 760.08475 335.99421 759.14739 336.11523 758.83203 C 336.21753 758.56548 336.09497 757.63451 335.8418 756.76367 C 334.92725 753.61769 334.46988 748.65012 334.29102 739.875 C 334.18724 734.78031 334.22504 731.09952 334.38086 731.09961 z M 377.22461 732.59961 C 377.4584 732.59961 379.04504 733.27271 380.75 734.0957 C 382.45493 734.91866 384.72828 735.82245 385.80078 736.10352 C 388.05147 736.69332 393.11183 736.78021 394.92188 736.25977 L 396.09375 735.92188 L 395.89062 740.63672 C 395.5663 748.23104 394.58191 756.70047 393.45898 761.55273 C 392.71849 764.75238 392.0756 766.2465 390.95117 767.37891 C 390.34541 767.98902 388.99893 769.40013 387.95898 770.51562 C 386.91903 771.63112 385.60646 772.73722 385.04297 772.97266 C 383.58002 773.58391 381.954 773.49473 380.41992 772.7207 C 379.14939 772.07966 376.36398 769.56268 374.60352 767.46484 C 374.14902 766.92325 373.40826 766.40701 372.95508 766.31641 L 372.13086 766.15039 L 372.94922 763.70117 C 374.74349 758.33579 376.79383 742.77381 376.79883 734.47461 C 376.79976 733.05735 376.90328 732.59961 377.22461 732.59961 z M 374.1875 734.6875 L 373.97852 738.51758 C 373.32641 750.47057 371.47491 761.54191 369.41016 765.83203 C 368.95533 766.77706 368.57641 767.74523 368.56641 767.98438 C 368.5566 768.22352 367.82403 768.79768 366.93945 769.25977 C 365.07555 770.23351 364.58807 770.26771 362.54297 769.56055 C 360.02159 768.68869 355.70608 765.26533 355.00195 763.58008 C 354.03373 761.26279 353.74352 745.86886 354.5 736.91992 L 354.68164 734.76953 L 356.36523 735.51562 C 359.02032 736.69157 362.24705 737.40039 364.94336 737.40039 C 367.65449 737.40039 369.73981 736.88817 372.41992 735.5625 L 374.1875 734.6875 z " id="path3776"/>
</svg>